<?xml version="1.0" encoding="UTF-8"?>
<svg width="18px" height="18px" viewBox="0 0 18 18" version="1.1" xmlns="http://www.w3.org/2000/svg" xmlns:xlink="http://www.w3.org/1999/xlink">
    <!-- Generator: Sketch 59.1 (86144) - https://sketch.com -->
    <title>开心</title>
    <desc>Created with Sketch.</desc>
    <g id="开心" stroke="none" stroke-width="1" fill="none" fill-rule="evenodd">
        <g id="2" transform="translate(1.000000, 1.000000)" fill-rule="nonzero">
            <path d="M8.00013431,-2.4424935e-15 C3.58173854,-2.4424935e-15 0,3.58173854 0,7.99988431 C0,12.4180301 3.58173854,16.0000186 8.00013431,16.0000186 C12.4185301,16.0000186 16.0000186,12.4182801 16.0000186,7.99988431 C16.0000186,3.58148854 12.4182801,-2.4424935e-15 8.00013431,-2.4424935e-15 Z" stroke="#000000" fill="#FFFFFF"></path>
            <path d="M11.0938879,4.66416168 L11.0938879,4.66416168 C11.4822274,4.66416168 11.7970387,4.97897298 11.7970387,5.3673125 L11.7970387,5.36731251 C11.7970387,5.75565203 11.4822274,6.07046333 11.0938879,6.07046333 C11.0938879,6.07046333 11.0938879,6.07046333 11.0938879,6.07046333 L11.0938879,6.07046333 C10.7059437,6.06990535 10.3917496,5.75525828 10.3917496,5.36731251 L10.3917496,5.36731189 C10.3917496,4.97936769 10.7059452,4.66472045 11.0938894,4.66416168 L11.0938879,4.66416168 Z" id="路径" fill="#000000"></path>
            <path d="M4.90636508,4.66416168 L4.90636512,4.66416168 C5.29460619,4.66430129 5.60926281,4.97907142 5.60926281,5.3673125 L5.60926281,5.36730317 C5.60912873,5.75564268 5.29420932,6.07034461 4.90586981,6.07021028 C4.9056167,6.07021028 4.90536359,6.07021028 4.90511049,6.07021028 L4.90511046,6.07021028 C4.51726469,6.06965173 4.2031112,5.75515764 4.20297214,5.36731187 L4.20297214,5.36731122 C4.20297214,4.97937014 4.51716157,4.66472446 4.90510265,4.66416168 L4.90636508,4.66416168 Z" id="路径" fill="#000000"></path>
            <path d="M8.00011868,12.3217026 L8.00011849,12.3217026 C5.5579594,12.3217026 3.57819147,10.3419339 3.57819147,7.89977482 C3.57819147,7.89977482 3.57819147,7.89977482 3.57819147,7.89977482 L4.20321407,7.89977482 L4.20321406,7.89952276 C4.20321438,9.9964002 5.90299729,11.6962928 7.99987473,11.6964334 L7.99987475,11.6964334 C10.0966584,11.6962938 11.7963948,9.99655645 11.7965354,7.89977276 L12.421558,7.89977276 L12.421558,7.9000256 C12.421558,10.3420597 10.4418995,12.3217026 7.99988101,12.3217026 C7.99979672,12.3217026 7.99971244,12.3217026 7.99962815,12.3217026 L8.00011868,12.3217026 Z" id="路径" fill="#000000"></path>
        </g>
    </g>
</svg>