<?xml version="1.0" encoding="UTF-8"?>
<svg width="14px" height="14px" viewBox="0 0 14 14" version="1.1" xmlns="http://www.w3.org/2000/svg" xmlns:xlink="http://www.w3.org/1999/xlink">
    <!-- Generator: Sketch 54.1 (76490) - https://sketchapp.com -->
    <title>下拉</title>
    <desc>Created with Sketch.</desc>
    <g id="免费学后台" stroke="none" stroke-width="1" fill="none" fill-rule="evenodd">
        <g id="弹窗" transform="translate(-1097.000000, -442.000000)" fill="#D5D8DB">
            <g id="编组-3" transform="translate(715.000000, 76.000000)">
                <g id="编组-4" transform="translate(66.000000, 357.000000)">
                    <g id="input_default" transform="translate(81.000000, 0.000000)">
                        <g id="日期" transform="translate(234.000000, 8.000000)">
                            <g id="编组">
                                <path d="M2,6 L2,14 L14,14 L14,3 L12,3 L12,4 L11,4 L11,3 L5,3 L5,4 L4,4 L4,3 L2,3 L2,5 L14,5 L14,6 L2,6 Z M5,2 L11,2 L11,1 L12,1 L12,2 L15,2 L15,15 L1,15 L1,2 L4,2 L4,1 L5,1 L5,2 Z M4,8 L6,8 L6,9 L4,9 L4,8 Z M4,11 L6,11 L6,12 L4,12 L4,11 Z M7,8 L9,8 L9,9 L7,9 L7,8 Z M7,11 L9,11 L9,12 L7,12 L7,11 Z M10,8 L12,8 L12,9 L10,9 L10,8 Z M10,11 L12,11 L12,12 L10,12 L10,11 Z" id="icon_date" fill-rule="nonzero"></path>
                            </g>
                        </g>
                    </g>
                </g>
            </g>
        </g>
    </g>
</svg>