<?xml version="1.0" encoding="UTF-8"?>
<svg width="14px" height="14px" viewBox="0 0 14 14" version="1.1" xmlns="http://www.w3.org/2000/svg" xmlns:xlink="http://www.w3.org/1999/xlink">
    <!-- Generator: Sketch 49.1 (51147) - http://www.bohemiancoding.com/sketch -->
    <title>yasuowenjian</title>
    <desc>Created with Sketch.</desc>
    <defs></defs>
    <g id="Page-1" stroke="none" stroke-width="1" fill="none" fill-rule="evenodd">
        <g id="底表下载" transform="translate(-272.000000, -357.000000)" fill-rule="nonzero">
            <g id="yasuowenjian" transform="translate(272.000000, 357.000000)">
                <path d="M1.3125,2.18575158e-16 L12.6875,2.18575158e-16 C13.4123737,0 14,0.587626264 14,1.3125 L14,12.6875 C14,13.4123737 13.4123737,14 12.6875,14 L1.3125,14 C0.587626264,14 1.09287579e-16,13.4123737 0,12.6875 L0,1.3125 C-2.18575158e-16,0.587626264 0.587626264,1.09287579e-16 1.3125,2.18575158e-16 Z" id="Shape" fill="#FFFFFF"></path>
                <path d="M1.3125,2.18575158e-16 L12.6875,2.18575158e-16 C13.4123737,0 14,0.587626264 14,1.3125 L14,12.6875 C14,13.4123737 13.4123737,14 12.6875,14 L1.3125,14 C0.587626264,14 1.09287579e-16,13.4123737 0,12.6875 L0,1.3125 C-2.18575158e-16,0.587626264 0.587626264,1.09287579e-16 1.3125,2.18575158e-16 Z" id="Shape" fill="#52C9C2"></path>
                <path d="M5.98431804,9.00276809 L7.99975093,9.00276809 L7.99975093,10.0013497 L5.98431804,10.0013497 L5.98431804,9.00276809 Z M8.5,0 L8.5,1.01411511 L6.99990897,1.01411511 L6.99990897,1.99716325 L8.5,1.99716325 L8.5,3.01127835 L6.99990897,3.01127835 L6.99990897,3.99432649 L8.5,3.99432649 L8.5,5.0084416 L6.99990897,5.0084416 L6.99990897,5.99148974 L8.5,5.99148974 L8.5,10.5006405 C8.5,10.6357819 8.44794085,10.7529488 8.34360381,10.8516975 C8.23926677,10.9504461 8.12486788,10.9999313 7.99996966,10.9999313 L5.98431804,10.9999313 C5.85423484,11.0021967 5.72932294,10.9483133 5.64068389,10.8516975 C5.54914171,10.75865 5.49843822,10.6320936 5.50003668,10.5006405 L5.50003668,7.00560485 L6.99990897,7.00560485 L6.99990897,5.99148974 L5.50003668,5.99148974 L5.50003668,5.0084416 L6.99990897,5.0084416 L6.99990897,3.99432649 L5.50003668,3.99432649 L5.50003668,3.01127835 L6.99990897,3.01127835 L6.99990897,1.99716325 L5.50003668,1.99716325 L5.50003668,1.01411511 L6.99990897,1.01411511 L6.99990897,0 L8.5,0 Z" id="Shape" fill="#FFFFFF"></path>
            </g>
        </g>
    </g>
</svg>