<?xml version="1.0" encoding="UTF-8"?>
<svg width="15px" height="14px" viewBox="0 0 15 14" version="1.1" xmlns="http://www.w3.org/2000/svg" xmlns:xlink="http://www.w3.org/1999/xlink">
    <!-- Generator: Sketch 49.1 (51147) - http://www.bohemiancoding.com/sketch -->
    <title>对勾 copy 4</title>
    <desc>Created with Sketch.</desc>
    <defs></defs>
    <g id="Page-1" stroke="none" stroke-width="1" fill="none" fill-rule="evenodd">
        <g id="底表下载" transform="translate(-1073.000000, -357.000000)" fill="#52C9C2" fill-rule="nonzero">
            <g id="Group-12" transform="translate(1062.750000, 302.000000)">
                <g id="对勾-copy-4" transform="translate(11.000000, 55.000000)">
                    <path d="M7,14 C3.14024526,14 0,10.8597547 0,7 C0,3.14024526 3.14024526,0 7,0 C10.8613155,0 14,3.14024526 14,7 C14,10.8597547 10.8613155,14 7,14 Z M7,1.23299889 C3.82073579,1.23299889 1.23299889,3.82073579 1.23299889,7 C1.23299889,10.1792642 3.82073579,12.7654404 7,12.7654404 C10.180825,12.7654404 12.7670011,10.1792642 12.7670011,7 C12.7670011,3.82073579 10.1792642,1.23299889 7,1.23299889 Z M6.61605351,10.1620959 C6.50367893,10.3150502 6.32575251,10.4086957 6.13534002,10.4133779 L6.1212932,10.4133779 C5.93556299,10.4133779 5.76075808,10.329097 5.64370123,10.1855072 L3.58350056,7.62898551 C3.37123746,7.36521739 3.41337793,6.97971014 3.67558528,6.76744705 C3.9393534,6.55518395 4.32486065,6.59576366 4.53712375,6.85953177 L6.09788183,8.79487179 L9.44102564,4.24682274 C9.64080268,3.97369008 10.0263099,3.91594203 10.2978818,4.11571906 C10.5694537,4.3154961 10.6287625,4.70100334 10.4274247,4.97257525 L6.61605351,10.1620959 Z" id="Shape"></path>
                </g>
            </g>
        </g>
    </g>
</svg>