<?xml version="1.0" encoding="UTF-8"?>
<svg width="15px" height="14px" viewBox="0 0 15 14" version="1.1" xmlns="http://www.w3.org/2000/svg" xmlns:xlink="http://www.w3.org/1999/xlink">
    <!-- Generator: Sketch 49.1 (51147) - http://www.bohemiancoding.com/sketch -->
    <title>对勾 copy 2</title>
    <desc>Created with Sketch.</desc>
    <defs></defs>
    <g id="Page-1" stroke="none" stroke-width="1" fill="none" fill-rule="evenodd">
        <g id="底表下载" transform="translate(-1073.000000, -658.000000)" fill="#FF0000" fill-rule="nonzero">
            <g id="Group-12" transform="translate(1062.750000, 302.000000)">
                <g id="对勾-copy-2" transform="translate(11.000000, 356.000000)">
                    <path d="M7,14 C3.14024526,14 0,10.8597547 0,7 C0,3.14024526 3.14024526,0 7,0 C10.8613155,0 14,3.14024526 14,7 C14,10.8597547 10.8613155,14 7,14 Z M7,1.23299889 C3.82073579,1.23299889 1.23299889,3.82073579 1.23299889,7 C1.23299889,10.1792642 3.82073579,12.7654404 7,12.7654404 C10.180825,12.7654404 12.7670011,10.1792642 12.7670011,7 C12.7670011,3.82073579 10.1792642,1.23299889 7,1.23299889 Z M9.84788319,9.11365563 C10.0507056,9.31635257 10.0507056,9.64516591 9.84788319,9.84794717 C9.74646897,9.9492836 9.61361917,10 9.48075733,10 C9.34779911,10 9.21496136,9.9492836 9.11354715,9.84794717 L6.99999699,7.73432618 L4.88634444,9.84794717 C4.78493022,9.9492836 4.65219487,10 4.51923063,10 C4.38626639,10 4.25352501,9.9492836 4.15211682,9.84794717 C3.9492944,9.64516591 3.9492944,9.31635257 4.15211682,9.11365563 L6.26566095,6.99998645 L4.15211681,4.88637147 C3.9492944,4.68360225 3.9492944,4.35480699 4.15211681,4.15203174 C4.35493923,3.94932275 4.683516,3.94932275 4.88633842,4.15203174 L6.99999096,6.26564672 L9.11354714,4.15203174 C9.31636353,3.94932275 9.64504872,3.94932275 9.84788318,4.15203174 C10.0507056,4.35480699 10.0507056,4.68360225 9.84788318,4.88637147 L7.73433303,6.99998645 L9.84788319,9.11365563 Z" id="Shape"></path>
                </g>
            </g>
        </g>
    </g>
</svg>