<?xml version="1.0" encoding="UTF-8"?>
<svg width="15px" height="17px" viewBox="0 0 15 17" version="1.1" xmlns="http://www.w3.org/2000/svg" xmlns:xlink="http://www.w3.org/1999/xlink">
    <!-- Generator: Sketch 49.1 (51147) - http://www.bohemiancoding.com/sketch -->
    <title>Group 8 Copy 2</title>
    <desc>Created with Sketch.</desc>
    <defs></defs>
    <g id="Page-1" stroke="none" stroke-width="1" fill="none" fill-rule="evenodd">
        <g id="底表下载" transform="translate(-1073.000000, -605.000000)" fill="#FFBF00" fill-rule="nonzero" stroke="#FFBF00" stroke-width="0.2">
            <g id="Group-12" transform="translate(1062.750000, 302.000000)">
                <g id="Group-8-Copy-2" transform="translate(11.000000, 304.000000)">
                    <g id="打包-2-copy-4">
                        <path d="M6.87820348,7.8452752 C6.79502073,7.8452752 6.7395844,7.81779248 6.6841104,7.79027211 L0.225598973,4.13256685 C0.0316000752,4.02254184 -0.0515450111,3.77506562 0.0593276637,3.5824983 C0.170219155,3.39006285 0.419654398,3.30752054 0.613747471,3.41745137 L7.0721647,7.10275237 C7.26625779,7.21270203 7.34932752,7.46025359 7.2385302,7.6528209 C7.18305619,7.79027211 7.04445596,7.8452752 6.87820348,7.8452752" id="Shape"></path>
                        <path d="M6.90581805,7.8452752 C6.76727431,7.8452752 6.62867407,7.76275173 6.54549132,7.62530052 C6.43467517,7.43277088 6.51776373,7.18527583 6.71181914,7.07525082 L13.3920759,3.36248596 C13.5860559,3.25247978 13.8355477,3.33498442 13.9464769,3.52745755 C14.0573683,3.71998719 13.9742044,3.96748224 13.780149,4.07750725 L7.09991112,7.79027211 C7.04445596,7.8452752 6.96127321,7.8452752 6.90581805,7.8452752" id="Shape"></path>
                        <path d="M13.5584037,4.13256685 C13.5028732,4.13256685 13.4197846,4.10504647 13.3643106,4.07754491 L6.7395844,0.777340878 C6.54549132,0.667315869 6.46242159,0.41983965 6.54549132,0.227291177 C6.65638281,0.0347992146 6.90581805,-0.0476865863 7.09991112,0.0347992146 L13.724675,3.33500325 C13.9187681,3.44502826 14.001932,3.69250448 13.9187681,3.8850718 C13.8632941,4.05002455 13.724675,4.13256685 13.5584037,4.13256685" id="Shape"></path>
                        <path d="M0.530564721,4.10504646 C0.391945642,4.10504646 0.225598973,4.02252299 0.170238002,3.8850718 C0.0593465111,3.69252332 0.142510414,3.44502827 0.3642369,3.33500325 L6.7395844,0.0623195907 C6.93356447,-0.0476865863 7.18309389,0.0348368783 7.29398538,0.254811553 C7.40480153,0.474880403 7.32161878,0.694855077 7.09991112,0.804880102 L0.724563619,4.05002454 C0.669108458,4.07754491 0.613747471,4.10504646 0.530564721,4.10504646 M6.93356447,15.5243089 C6.85047591,15.5243089 6.79502073,15.4968262 6.71185682,15.4692869 L0.308762892,11.5915317 C0.114782825,11.4815067 0.0593276637,11.2065101 0.170219155,11.0140558 C0.281035303,10.8215073 0.558254631,10.7665042 0.752253529,10.8765292 L7.15530979,14.754228 C7.34930869,14.864253 7.40474502,15.1393249 7.29392887,15.3317792 C7.2107838,15.469287 7.07216472,15.5243089 6.93356447,15.5243089 M13.9330463,11.3404011 C13.8942051,11.4148813 13.8436663,11.4519708 13.7802244,11.5138115 L7.31817167,15.4691551 C7.12901379,15.5924788 6.85710641,15.5158135 6.73672123,15.3280496 C6.61633606,15.1402103 6.69665563,14.8665887 6.88581349,14.7432462 L13.3479227,10.7879027 C13.5369299,10.6646731 13.8089315,10.7413196 13.9293166,10.9291024 C14.0134601,11.0667985 13.9979198,11.2162486 13.9330463,11.3404011" id="Shape"></path>
                        <path d="M7.04445596,15.5457262 C6.82274831,15.5457262 6.62867407,15.353253 6.62867407,15.1332219 L6.62867407,7.51527551 C6.62867407,7.2952255 6.82274831,7.1027712 7.04445596,7.1027712 C7.26625779,7.1027712 7.46025669,7.29526316 7.46025669,7.51527551 L7.46025669,15.1332972 C7.46025669,15.3532907 7.26625779,15.5457262 7.04445596,15.5457262 M0.41967323,11.5855228 C0.197984423,11.5855228 0.00389133407,11.3929743 0.00389133407,11.1729996 L0.00389133407,3.99504029 C0.00389133407,3.77506562 0.197984423,3.58251715 0.41967323,3.58251715 C0.641380885,3.58251715 0.835473958,3.77506562 0.835473958,3.99504029 L0.835473958,11.1729996 C0.835455126,11.3929743 0.641380869,11.5855228 0.41967323,11.5855228" id="Shape"></path>
                        <path d="M5.61409319,13.284097 L1.15626255,10.6406901 C1.02547952,10.5522519 0.966577246,10.3492114 1.01915041,10.1895329 C1.09022117,10.0295907 1.25507974,9.95868947 1.38546719,10.0244294 L5.84329783,12.6678364 C5.97408086,12.7562745 6.03302081,12.959315 5.98040999,13.1190124 C5.94586354,13.2556348 5.85476938,13.3252739 5.74408508,13.3271953 C5.7071087,13.3278357 5.65138981,13.3061359 5.61409319,13.284097 Z" id="Shape-Copy-3" transform="translate(3.499788, 11.663605) rotate(1.000000) translate(-3.499788, -11.663605) "></path>
                        <path d="M13.5788792,11.5282593 C13.3571715,11.5282593 13.1630785,11.3357673 13.1630784,11.115755 L13.1630784,3.93773913 C13.1630784,3.71776446 13.3571715,3.52521598 13.5788792,3.52521598 C13.8006433,3.52521598 13.9946611,3.71776446 13.9946611,3.93773913 L13.9946611,11.1157173 C13.9946422,11.3357673 13.8006433,11.5282593 13.5788792,11.5282593" id="Shape"></path>
                    </g>
                    <polygon id="Shape" points="5.95148437 9.63687847 5.01180962 7.77525871 4.05440519 9.0074737 4.70153967 9.22023024 4.70153967 11.1350391 5.3398093 11.3743903 5.3398093 9.43298678"></polygon>
                    <polygon id="Shape" points="3.48203191 8.35782796 2.52462746 6.54053248 1.58495273 7.73728804 2.21435751 7.94117973 2.21435751 9.6786915 2.85262714 9.91804263 2.85262714 8.15393627"></polygon>
                </g>
            </g>
        </g>
    </g>
</svg>