<?xml version="1.0" encoding="UTF-8"?>
<svg width="12px" height="12px" viewBox="0 0 12 12" version="1.1" xmlns="http://www.w3.org/2000/svg" xmlns:xlink="http://www.w3.org/1999/xlink">
    <!-- Generator: Sketch 54.1 (76490) - https://sketchapp.com -->
    <title>Shape1</title>
    <desc>Created with Sketch.</desc>
    <g id="Page-1" stroke="none" stroke-width="1" fill="none" fill-rule="evenodd">
        <g id="1.3NPS" transform="translate(-629.000000, -397.000000)" fill="#FFBC00" fill-rule="nonzero">
            <g id="编组-10" transform="translate(599.000000, 397.000000)">
                <path d="M41.9399241,4.47907132 C41.8007976,4.06384641 41.4462927,3.76515236 41.014198,3.69952004 L38.2758144,3.28027682 L37.0504312,0.668378167 C36.9527751,0.459426275 36.7975956,0.286639134 36.6009457,0.167429401 C36.4203488,0.0575957138 36.2116591,0 36.0002939,0 C35.7875909,0 35.580239,0.0575957138 35.3996421,0.167429401 C35.2029922,0.286639134 35.0478127,0.459426275 34.9501566,0.668378167 L33.7247734,3.28027682 L30.9863898,3.69952004 C30.5542951,3.76515236 30.1997902,4.06384641 30.0606637,4.47907132 C29.9215372,4.89429624 30.0258821,5.3456859 30.3308901,5.65911374 L32.3468862,7.72854113 L31.8706456,10.6485099 C31.8157977,10.9860475 31.9107782,11.3276035 32.1315077,11.587454 C32.353575,11.8486438 32.6759738,11.9986606 33.0171013,11.9986606 C33.2124134,11.9986606 33.4063878,11.947762 33.5789582,11.8526621 L36.0002939,10.5132269 L38.4216296,11.8540016 C38.5942,11.9491015 38.7881744,12 38.9834866,12 C39.324614,12 39.6470128,11.8499833 39.8690801,11.5887934 C40.0898096,11.328943 40.1847901,10.987387 40.1299422,10.6498493 L39.6537016,7.72988057 L41.6696977,5.66045318 C41.9747057,5.34702534 42.0777128,4.89429624 41.9399241,4.47907132 Z" id="Shape1"></path>
            </g>
        </g>
    </g>
</svg>