<?xml version="1.0" encoding="UTF-8"?>
<svg width="12px" height="12px" viewBox="0 0 12 12" version="1.1" xmlns="http://www.w3.org/2000/svg" xmlns:xlink="http://www.w3.org/1999/xlink">
    <!-- Generator: Sketch 54.1 (76490) - https://sketchapp.com -->
    <title>Shape</title>
    <desc>Created with Sketch.</desc>
    <g id="Page-1" stroke="none" stroke-width="1" fill="none" fill-rule="evenodd">
        <g id="1.3NPS" transform="translate(-644.000000, -397.000000)" fill="#E8EBED" fill-rule="nonzero">
            <g id="编组-10" transform="translate(599.000000, 397.000000)">
                <path d="M56.9399241,4.47907132 C56.8007976,4.06384641 56.4462927,3.76515236 56.014198,3.69952004 L53.2758144,3.28027682 L52.0504312,0.668378167 C51.9527751,0.459426275 51.7975956,0.286639134 51.6009457,0.167429401 C51.4203488,0.0575957138 51.2116591,0 51.0002939,0 C50.7875909,0 50.580239,0.0575957138 50.3996421,0.167429401 C50.2029922,0.286639134 50.0478127,0.459426275 49.9501566,0.668378167 L48.7247734,3.28027682 L45.9863898,3.69952004 C45.5542951,3.76515236 45.1997902,4.06384641 45.0606637,4.47907132 C44.9215372,4.89429624 45.0258821,5.3456859 45.3308901,5.65911374 L47.3468862,7.72854113 L46.8706456,10.6485099 C46.8157977,10.9860475 46.9107782,11.3276035 47.1315077,11.587454 C47.353575,11.8486438 47.6759738,11.9986606 48.0171013,11.9986606 C48.2124134,11.9986606 48.4063878,11.947762 48.5789582,11.8526621 L51.0002939,10.5132269 L53.4216296,11.8540016 C53.5942,11.9491015 53.7881744,12 53.9834866,12 C54.324614,12 54.6470128,11.8499833 54.8690801,11.5887934 C55.0898096,11.328943 55.1847901,10.987387 55.1299422,10.6498493 L54.6537016,7.72988057 L56.6696977,5.66045318 C56.9747057,5.34702534 57.0777128,4.89429624 56.9399241,4.47907132 Z" id="Shape"></path>
            </g>
        </g>
    </g>
</svg>