<?xml version="1.0" encoding="UTF-8"?>
<svg width="18px" height="22px" viewBox="0 0 18 22" version="1.1" xmlns="http://www.w3.org/2000/svg" xmlns:xlink="http://www.w3.org/1999/xlink">
    <!-- Generator: Sketch 56.3 (81716) - https://sketch.com -->
    <title>jiangzhang</title>
    <desc>Created with Sketch.</desc>
    <g id="KO1.5" stroke="none" stroke-width="1" fill="none" fill-rule="evenodd">
        <g id="APP统计" transform="translate(-32.000000, -229.000000)" fill="#FFFFFF" fill-rule="nonzero">
            <g id="编组-16">
                <g id="编组-14" transform="translate(0.000000, 54.000000)">
                    <g id="Group-3-Copy-2" transform="translate(0.000000, 160.000000)">
                        <g id="jiangzhang" transform="translate(32.000000, 15.000000)">
                            <path d="M17.5997796,7.1848434 L17.2651719,6.71611592 C17.0831453,6.46095066 16.9118262,5.98944965 16.8823807,5.67326662 L16.8315204,5.09082419 C16.7726294,4.40298741 16.2319034,3.59311508 15.6322864,3.29079973 L15.1263596,3.03563447 C14.8506429,2.8969577 14.4865897,2.56413346 14.3206243,2.29510053 L14.0154621,1.80418476 C13.6540858,1.22451587 12.8135513,0.766882532 12.1470128,0.789070815 L11.5848718,0.805712028 C11.2770328,0.816806169 10.8059052,0.694770612 10.538219,0.539452631 L10.0483534,0.253778487 C9.46747441,-0.084592829 8.51986545,-0.084592829 7.9389865,0.253778487 L7.44912085,0.542226167 C7.1814347,0.697544148 6.71030708,0.819579704 6.40514487,0.808485563 L5.84300396,0.791844351 C5.17646545,0.769656068 4.33593094,1.22728941 3.97455464,1.8069583 L3.66939243,2.29787406 C3.50342702,2.56413346 3.13937386,2.89973124 2.86365713,3.03840801 L2.3577303,3.29357326 C1.75811333,3.59588862 1.22006417,4.40576095 1.15849636,5.09359772 L1.10763599,5.67604015 C1.08086738,5.99222319 0.906871379,6.4637242 0.724844798,6.71888945 L0.390237113,7.18761693 C-0.00593838731,7.74232401 -0.11836657,8.71860846 0.135935271,9.3565216 L0.352761052,9.89458746 C0.470542957,10.1885822 0.52943391,10.6878186 0.481250403,11.0012281 L0.395590836,11.5781234 C0.293870099,12.2604131 0.631154646,13.1812269 1.14243519,13.622219 L1.57608675,13.9966463 C1.81165056,14.1991144 2.08736729,14.6123711 2.18641117,14.9146865 L2.37111461,15.46662 C2.40323695,15.5664673 2.44606673,15.6635411 2.4969271,15.7578413 L0.628477785,19.072216 C0.566909971,19.1803839 0.641862092,19.3190607 0.764997721,19.3190607 L3.3936757,19.3190607 L4.6518006,21.2993649 C4.71604527,21.4019857 4.86059579,21.3964387 4.92216361,21.2910443 L6.55772598,18.3871528 C6.9940544,18.5563385 7.49195064,18.5979415 7.91221789,18.4759059 L8.45562077,18.3178144 C8.75275239,18.2318348 9.23726432,18.2318348 9.53171909,18.3178144 L10.075122,18.4759059 C10.4739743,18.5923944 10.945102,18.559112 11.3653692,18.4121146 L12.9875473,21.2938179 C13.0464382,21.3992122 13.1909887,21.4019857 13.2579103,21.3021385 L14.5160352,19.3218342 L17.1447132,19.3218342 C17.2678488,19.3218342 17.3428009,19.1831574 17.2812331,19.0749896 L15.4529367,15.8299532 C15.5198582,15.7134647 15.5760723,15.5914291 15.6162252,15.4693936 L15.8009287,14.91746 C15.8999726,14.6151447 16.1756893,14.2018879 16.41393,13.9994198 L16.8475815,13.6249925 C17.3588621,13.1840004 17.6961466,12.2631867 17.5944259,11.580897 L17.5087663,11.0040016 C17.4632597,10.6878186 17.5194738,10.1913557 17.6372557,9.897361 L17.8540814,9.35929514 C18.1217676,8.68809957 18.0120163,7.76728583 17.5997796,7.1848434 Z M9.23458746,16.7573455 C4.98908515,16.8967682 1.5171958,13.3510559 1.65371573,9.01528128 C1.77685136,5.08683981 4.9087793,1.88831754 8.75275239,1.76529745 C12.9982547,1.62587468 16.4701441,5.17158699 16.3336241,9.50736163 C16.2131654,13.4330693 13.0812374,16.6315916 9.23458746,16.7573455 Z" id="形状"></path>
                            <path d="M14.991899,8.68846696 C14.8380906,5.64091785 12.3615144,3.16429538 9.31141523,3.00787712 C5.75296621,2.82799612 2.82799933,5.7530176 3.00787698,9.31153304 C3.16168539,12.3590822 5.63826163,14.8357046 8.68836078,14.9921229 C12.2494167,15.1720039 15.1743836,12.2469824 14.991899,8.68846696 L14.991899,8.68846696 Z M11.9743521,8.37941338 L10.5819824,9.80276988 C10.5615397,9.82422751 10.5524541,9.85283769 10.5569969,9.88144787 L10.8863503,11.8936973 C10.8977073,11.9676069 10.8250224,12.0224431 10.7614232,11.9890645 L9.03970012,11.037776 C9.0147147,11.0234709 8.98518646,11.0234709 8.96020104,11.037776 L7.238478,11.9890645 C7.17487873,12.0248273 7.10219385,11.9676069 7.11355086,11.8936973 L7.44290422,9.88144787 C7.44744702,9.85283769 7.43836141,9.82184333 7.41791879,9.80276988 L6.0255491,8.3770292 C5.97557825,8.3245772 6.00283508,8.23397829 6.07324855,8.22444156 L7.99939781,7.93118721 C8.02665464,7.92641885 8.05164007,7.90734539 8.06299708,7.88111939 L8.9238586,6.05006782 C8.95565823,5.98331073 9.04651433,5.98331073 9.07831396,6.05006782 L9.93917548,7.88111939 C9.9528039,7.90734539 9.97551792,7.92641885 10.0027748,7.93118721 L11.928924,8.22444156 C11.9970661,8.23636247 12.0243229,8.32696138 11.9743521,8.37941338 L11.9743521,8.37941338 Z" id="形状"></path>
                        </g>
                    </g>
                </g>
            </g>
        </g>
    </g>
</svg>