<?xml version="1.0" encoding="UTF-8"?>
<svg width="16px" height="16px" viewBox="0 0 16 16" version="1.1" xmlns="http://www.w3.org/2000/svg" xmlns:xlink="http://www.w3.org/1999/xlink">
    <!-- Generator: Sketch 54.1 (76490) - https://sketchapp.com -->
    <title>xiaolian</title>
    <desc>Created with Sketch.</desc>
    <g id="1.2" stroke="none" stroke-width="1" fill="none" fill-rule="evenodd">
        <g id="用户行为轨迹-IM复制-4" transform="translate(-402.000000, -234.000000)" fill-rule="nonzero">
            <g id="编组" transform="translate(258.000000, 224.000000)">
                <g id="编组-3" transform="translate(140.000000, 6.000000)">
                    <g id="编组-4复制" transform="translate(4.000000, 0.000000)">
                        <g id="xiaolian" transform="translate(0.000000, 4.000000)">
                            <path d="M0.00571949902,8 C0.00571949902,12.4151192 3.58488079,15.9942805 8,15.9942805 C12.4151192,15.9942805 15.9942805,12.4151192 15.9942805,8 C15.9942805,3.58488079 12.4151192,0.00571949902 8,0.00571949902 C3.58488079,0.00571949902 0.00571949902,3.58488079 0.00571949902,8 Z" id="路径" fill="#FFC74D"></path>
                            <path d="M8,12.0799687 C6.3824946,12.0846125 4.85408945,11.3396507 3.86124983,10.0626954 C3.69047309,9.81142642 3.74150414,9.47109877 3.97846721,9.28096911 C4.21543028,9.09083944 4.55872941,9.11477237 4.76701891,9.33594259 C5.54547393,10.3311561 6.74038037,10.910477 8.00387347,10.9052516 C9.26736656,10.9000262 10.4574405,10.3108419 11.2276373,9.30922375 C11.4238976,9.05393778 11.7899482,9.00608803 12.0452342,9.20234834 C12.3005201,9.39860865 12.3483699,9.76465923 12.1521096,10.0199452 C11.1657206,11.3173538 9.62979512,12.0793864 8,12.0799687 Z M5.36017742,7.37210697 C4.87616704,7.37210697 4.4837991,6.97973903 4.48379909,6.49572864 L4.48379909,5.3281148 C4.46587975,5.00395418 4.62863215,4.69644688 4.90675655,4.52897141 C5.18488094,4.36149594 5.53280203,4.36149594 5.81092643,4.52897141 C6.08905082,4.69644688 6.25180322,5.00395418 6.23388388,5.3281148 L6.23388388,6.49572864 C6.23388387,6.97973903 5.84151593,7.37210697 5.35750555,7.37210697 L5.36017742,7.37210697 Z M10.6131037,7.37210697 C10.1290933,7.37210697 9.73672538,6.97973903 9.73672537,6.49572864 L9.73672537,5.3281148 C9.71880608,5.00395421 9.8815585,4.69644696 10.1596829,4.52897153 C10.4378072,4.36149609 10.7857283,4.36149609 11.0638527,4.52897153 C11.341977,4.69644696 11.5047295,5.00395421 11.4868102,5.3281148 L11.4868102,6.49572864 C11.4868102,6.97973903 11.0944422,7.37210697 10.6104318,7.37210697 L10.6131037,7.37210697 Z" id="形状" fill="#65542D"></path>
                        </g>
                    </g>
                </g>
            </g>
        </g>
    </g>
</svg>