<svg id="组_26" data-name="组 26" xmlns="http://www.w3.org/2000/svg" xmlns:xlink="http://www.w3.org/1999/xlink" width="1024" height="856" viewBox="0 0 1024 856">
  <metadata><?xpacket begin="﻿" id="W5M0MpCehiHzreSzNTczkc9d"?>
<x:xmpmeta xmlns:x="adobe:ns:meta/" x:xmptk="Adobe XMP Core 5.6-c140 79.160451, 2017/05/06-01:08:21        ">
   <rdf:RDF xmlns:rdf="http://www.w3.org/1999/02/22-rdf-syntax-ns#">
      <rdf:Description rdf:about=""/>
   </rdf:RDF>
</x:xmpmeta>
                                                                                                    
                                                                                                    
                                                                                                    
                                                                                                    
                                                                                                    
                                                                                                    
                                                                                                    
                                                                                                    
                                                                                                    
                                                                                                    
                                                                                                    
                                                                                                    
                                                                                                    
                                                                                                    
                                                                                                    
                                                                                                    
                                                                                                    
                                                                                                    
                                                                                                    
                                                                                                    
                           
<?xpacket end="w"?></metadata>
<defs>
    <style>
      .cls-1, .cls-10, .cls-12, .cls-13, .cls-14, .cls-15, .cls-16, .cls-17, .cls-18, .cls-19, .cls-2, .cls-20, .cls-21, .cls-22, .cls-23, .cls-24, .cls-25, .cls-26, .cls-27, .cls-28, .cls-29, .cls-3, .cls-30, .cls-31, .cls-32, .cls-5, .cls-6, .cls-7, .cls-8 {
        fill: #008dff;
      }

      .cls-1, .cls-10, .cls-11, .cls-12, .cls-13, .cls-14, .cls-15, .cls-16, .cls-17, .cls-18, .cls-19, .cls-2, .cls-20, .cls-21, .cls-22, .cls-23, .cls-24, .cls-25, .cls-26, .cls-27, .cls-28, .cls-29, .cls-3, .cls-30, .cls-31, .cls-32, .cls-4, .cls-5, .cls-6, .cls-7, .cls-8, .cls-9 {
        stroke: #3cbbba;
        stroke-linejoin: round;
        stroke-width: 2px;
        fill-rule: evenodd;
      }

      .cls-1 {
        filter: url(#filter);
      }

      .cls-2 {
        filter: url(#filter-2);
      }

      .cls-3 {
        filter: url(#filter-3);
      }

      .cls-4 {
        fill: #ec4f44;
        filter: url(#filter-4);
      }

      .cls-5 {
        filter: url(#filter-5);
      }

      .cls-6 {
        filter: url(#filter-6);
      }

      .cls-7 {
        filter: url(#filter-7);
      }

      .cls-8 {
        filter: url(#filter-8);
      }

      .cls-9 {
        fill: #52c9c2;
      }

      .cls-10 {
        filter: url(#filter-9);
      }

      .cls-11 {
        fill: #fd9d3c;
        filter: url(#filter-10);
      }

      .cls-12 {
        filter: url(#filter-11);
      }

      .cls-13 {
        filter: url(#filter-12);
      }

      .cls-14 {
        filter: url(#filter-13);
      }

      .cls-15 {
        filter: url(#filter-14);
      }

      .cls-16 {
        filter: url(#filter-15);
      }

      .cls-17 {
        filter: url(#filter-16);
      }

      .cls-18 {
        filter: url(#filter-17);
      }

      .cls-19 {
        filter: url(#filter-18);
      }

      .cls-20 {
        filter: url(#filter-19);
      }

      .cls-21 {
        filter: url(#filter-20);
      }

      .cls-22 {
        filter: url(#filter-21);
      }

      .cls-23 {
        filter: url(#filter-22);
      }

      .cls-24 {
        filter: url(#filter-23);
      }

      .cls-25 {
        filter: url(#filter-24);
      }

      .cls-26 {
        filter: url(#filter-25);
      }

      .cls-27 {
        filter: url(#filter-26);
      }

      .cls-28 {
        filter: url(#filter-27);
      }

      .cls-29 {
        filter: url(#filter-28);
      }

      .cls-30 {
        filter: url(#filter-29);
      }

      .cls-31 {
        filter: url(#filter-30);
      }

      .cls-32 {
        filter: url(#filter-31);
      }

      .cls-33 {
        font-size: 16.029px;
      }

      .cls-33, .cls-34, .cls-35, .cls-36 {
        fill: #fff;
        font-family: "Microsoft YaHei";
      }

      .cls-34 {
        font-size: 17.87px;
      }

      .cls-35 {
        font-size: 18.003px;
      }

      .cls-36 {
        font-size: 9.299px;
      }
    </style>
    <filter id="filter" x="783" y="4" width="237" height="213" filterUnits="userSpaceOnUse">
      <feFlood result="flood" flood-color="#52c9c2"/>
      <feComposite result="composite" operator="in" in2="SourceGraphic"/>
      <feBlend result="blend" in2="SourceGraphic"/>
    </filter>
    <filter id="filter-2" x="818" y="166" width="181" height="119" filterUnits="userSpaceOnUse">
      <feFlood result="flood" flood-color="#52c9c2"/>
      <feComposite result="composite" operator="in" in2="SourceGraphic"/>
      <feBlend result="blend" in2="SourceGraphic"/>
    </filter>
    <filter id="filter-3" x="796" y="229" width="128" height="122" filterUnits="userSpaceOnUse">
      <feFlood result="flood" flood-color="#52c9c2"/>
      <feComposite result="composite" operator="in" in2="SourceGraphic"/>
      <feBlend result="blend" in2="SourceGraphic"/>
    </filter>
    <filter id="filter-4" x="742" y="363" width="140" height="97" filterUnits="userSpaceOnUse">
      <feFlood result="flood" flood-color="#52c9c2"/>
      <feComposite result="composite" operator="in" in2="SourceGraphic"/>
      <feBlend result="blend" in2="SourceGraphic"/>
    </filter>
    <filter id="filter-5" x="426" y="16" width="448" height="385" filterUnits="userSpaceOnUse">
      <feFlood result="flood" flood-color="#52c9c2"/>
      <feComposite result="composite" operator="in" in2="SourceGraphic"/>
      <feBlend result="blend" in2="SourceGraphic"/>
    </filter>
    <filter id="filter-6" x="738" y="299" width="45" height="43" filterUnits="userSpaceOnUse">
      <feFlood result="flood" flood-color="#52c9c2"/>
      <feComposite result="composite" operator="in" in2="SourceGraphic"/>
      <feBlend result="blend" in2="SourceGraphic"/>
    </filter>
    <filter id="filter-7" x="336" y="259" width="294" height="255" filterUnits="userSpaceOnUse">
      <feFlood result="flood" flood-color="#52c9c2"/>
      <feComposite result="composite" operator="in" in2="SourceGraphic"/>
      <feBlend result="blend" in2="SourceGraphic"/>
    </filter>
    <filter id="filter-8" x="544" y="350" width="63" height="97" filterUnits="userSpaceOnUse">
      <feFlood result="flood" flood-color="#52c9c2"/>
      <feComposite result="composite" operator="in" in2="SourceGraphic"/>
      <feBlend result="blend" in2="SourceGraphic"/>
    </filter>
    <filter id="filter-9" x="659" y="414" width="123" height="119" filterUnits="userSpaceOnUse">
      <feFlood result="flood" flood-color="#52c9c2"/>
      <feComposite result="composite" operator="in" in2="SourceGraphic"/>
      <feBlend result="blend" in2="SourceGraphic"/>
    </filter>
    <filter id="filter-10" x="771" y="430" width="116" height="117" filterUnits="userSpaceOnUse">
      <feFlood result="flood" flood-color="#52c9c2"/>
      <feComposite result="composite" operator="in" in2="SourceGraphic"/>
      <feBlend result="blend" in2="SourceGraphic"/>
    </filter>
    <filter id="filter-11" x="869" y="503" width="27" height="33" filterUnits="userSpaceOnUse">
      <feFlood result="flood" flood-color="#52c9c2"/>
      <feComposite result="composite" operator="in" in2="SourceGraphic"/>
      <feBlend result="blend" in2="SourceGraphic"/>
    </filter>
    <filter id="filter-12" x="748" y="446" width="103" height="126" filterUnits="userSpaceOnUse">
      <feFlood result="flood" flood-color="#52c9c2"/>
      <feComposite result="composite" operator="in" in2="SourceGraphic"/>
      <feBlend result="blend" in2="SourceGraphic"/>
    </filter>
    <filter id="filter-13" x="761" y="320" width="36" height="45" filterUnits="userSpaceOnUse">
      <feFlood result="flood" flood-color="#52c9c2"/>
      <feComposite result="composite" operator="in" in2="SourceGraphic"/>
      <feBlend result="blend" in2="SourceGraphic"/>
    </filter>
    <filter id="filter-14" x="815" y="537" width="83" height="84" filterUnits="userSpaceOnUse">
      <feFlood result="flood" flood-color="#52c9c2"/>
      <feComposite result="composite" operator="in" in2="SourceGraphic"/>
      <feBlend result="blend" in2="SourceGraphic"/>
    </filter>
    <filter id="filter-15" x="728" y="552" width="106" height="146" filterUnits="userSpaceOnUse">
      <feFlood result="flood" flood-color="#52c9c2"/>
      <feComposite result="composite" operator="in" in2="SourceGraphic"/>
      <feBlend result="blend" in2="SourceGraphic"/>
    </filter>
    <filter id="filter-16" x="783" y="592" width="93" height="118" filterUnits="userSpaceOnUse">
      <feFlood result="flood" flood-color="#52c9c2"/>
      <feComposite result="composite" operator="in" in2="SourceGraphic"/>
      <feBlend result="blend" in2="SourceGraphic"/>
    </filter>
    <filter id="filter-17" x="869" y="653" width="43" height="91" filterUnits="userSpaceOnUse">
      <feFlood result="flood" flood-color="#52c9c2"/>
      <feComposite result="composite" operator="in" in2="SourceGraphic"/>
      <feBlend result="blend" in2="SourceGraphic"/>
    </filter>
    <filter id="filter-18" x="622" y="489" width="162" height="105" filterUnits="userSpaceOnUse">
      <feFlood result="flood" flood-color="#52c9c2"/>
      <feComposite result="composite" operator="in" in2="SourceGraphic"/>
      <feBlend result="blend" in2="SourceGraphic"/>
    </filter>
    <filter id="filter-19" x="4" y="99" width="409" height="317" filterUnits="userSpaceOnUse">
      <feFlood result="flood" flood-color="#52c9c2"/>
      <feComposite result="composite" operator="in" in2="SourceGraphic"/>
      <feBlend result="blend" in2="SourceGraphic"/>
    </filter>
    <filter id="filter-20" x="43" y="383" width="404" height="252" filterUnits="userSpaceOnUse">
      <feFlood result="flood" flood-color="#52c9c2"/>
      <feComposite result="composite" operator="in" in2="SourceGraphic"/>
      <feBlend result="blend" in2="SourceGraphic"/>
    </filter>
    <filter id="filter-21" x="629" y="559" width="119" height="140" filterUnits="userSpaceOnUse">
      <feFlood result="flood" flood-color="#52c9c2"/>
      <feComposite result="composite" operator="in" in2="SourceGraphic"/>
      <feBlend result="blend" in2="SourceGraphic"/>
    </filter>
    <filter id="filter-22" x="649" y="668" width="169" height="132" filterUnits="userSpaceOnUse">
      <feFlood result="flood" flood-color="#52c9c2"/>
      <feComposite result="composite" operator="in" in2="SourceGraphic"/>
      <feBlend result="blend" in2="SourceGraphic"/>
    </filter>
    <filter id="filter-23" x="547" y="651" width="162" height="123" filterUnits="userSpaceOnUse">
      <feFlood result="flood" flood-color="#52c9c2"/>
      <feComposite result="composite" operator="in" in2="SourceGraphic"/>
      <feBlend result="blend" in2="SourceGraphic"/>
    </filter>
    <filter id="filter-24" x="562" y="511" width="105" height="107" filterUnits="userSpaceOnUse">
      <feFlood result="flood" flood-color="#52c9c2"/>
      <feComposite result="composite" operator="in" in2="SourceGraphic"/>
      <feBlend result="blend" in2="SourceGraphic"/>
    </filter>
    <filter id="filter-25" x="705" y="260" width="120" height="168" filterUnits="userSpaceOnUse">
      <feFlood result="flood" flood-color="#52c9c2"/>
      <feComposite result="composite" operator="in" in2="SourceGraphic"/>
      <feBlend result="blend" in2="SourceGraphic"/>
    </filter>
    <filter id="filter-26" x="649" y="314" width="81" height="150" filterUnits="userSpaceOnUse">
      <feFlood result="flood" flood-color="#52c9c2"/>
      <feComposite result="composite" operator="in" in2="SourceGraphic"/>
      <feBlend result="blend" in2="SourceGraphic"/>
    </filter>
    <filter id="filter-27" x="266" y="339" width="258" height="193" filterUnits="userSpaceOnUse">
      <feFlood result="flood" flood-color="#52c9c2"/>
      <feComposite result="composite" operator="in" in2="SourceGraphic"/>
      <feBlend result="blend" in2="SourceGraphic"/>
    </filter>
    <filter id="filter-28" x="408" y="466" width="208" height="204" filterUnits="userSpaceOnUse">
      <feFlood result="flood" flood-color="#52c9c2"/>
      <feComposite result="composite" operator="in" in2="SourceGraphic"/>
      <feBlend result="blend" in2="SourceGraphic"/>
    </filter>
    <filter id="filter-29" x="398" y="584" width="189" height="198" filterUnits="userSpaceOnUse">
      <feFlood result="flood" flood-color="#52c9c2"/>
      <feComposite result="composite" operator="in" in2="SourceGraphic"/>
      <feBlend result="blend" in2="SourceGraphic"/>
    </filter>
    <filter id="filter-30" x="528" y="581" width="132" height="118" filterUnits="userSpaceOnUse">
      <feFlood result="flood" flood-color="#52c9c2"/>
      <feComposite result="composite" operator="in" in2="SourceGraphic"/>
      <feBlend result="blend" in2="SourceGraphic"/>
    </filter>
    <filter id="filter-31" x="630" y="799" width="61" height="53" filterUnits="userSpaceOnUse">
      <feFlood result="flood" flood-color="#52c9c2"/>
      <feComposite result="composite" operator="in" in2="SourceGraphic"/>
      <feBlend result="blend" in2="SourceGraphic"/>
    </filter>
  </defs>
  <g style="fill: #008dff; filter: url(#filter)">
    <path id="heilongjiang" class="cls-1" d="M790,20l2,5-1,4-4,5s7.306,9.345,10,10c5.366,1.306,5.986-5.983,5-6,2.227,0.037,3.457-2.043,7,1s4.671,10,5,11c0.516,1.561,3.6,8.734,6,9s5.786-2.346,8-2,5.011-2.848,9-2,9-8,9-8,7.322-4.752,11,4c5.042,12,.92,7.444,5,9,0.549,4.021-7,22-7,22a7.1,7.1,0,0,0,3,8c4.627,2.977,1.906,9.878,1,11s-1.71,9.2,3,13,0,10,0,10a9.543,9.543,0,0,1-4-2c-1.283-1.366-2-8-2-8s-7.1-3.215-7,3-4.892,7.3-6,11-1.935,2.553-2,7c-3.225,2.9-6.69,5.475-7,7s-3.026,6.567-2,8,7.149,9.217,11,10a11.994,11.994,0,0,0,6,0l2-4s5.411,1.774,2,6c-2.484,1.6-7.158.514-7,3s1.874,7.311,4,8,4.563-5.585,8,2c0.526,4.461,3.043,9.475,14,14,20.3-6.333,15.962-11.291,20-12s3.585-1.317,4,8c0.637,6.456,7.724,1.354,10,1s6.438,1.757,9,5,2.639,0.94,4,3,8.19,11.822,11,12c4,0.253,4.87-9.932,6-10,1.987-.842.7-1.82,14,16,4.679,2.074,3.516.272,6,0s7-4,7-4l1-5s4.894-4.155,7-4a3.455,3.455,0,0,0,3-1s10.221,11.028,16,11,5,0,5,0-2.894-3.831-3-7-0.933-5.756-2-7-3.8-5.6-4-7-1-8-1-8l-5-5s0.951-6.36,5-8,4-5,4-5,9.413-1.121,11,1,6.81-.352,7-1a18.861,18.861,0,0,1,3-4c0.32-.084-1.79-7.4,0-8s-0.24-6.808,1-9-1.09-13.185,1-14c-0.88-3.294-3.63-9.887-1-9s4-6,4-6,1.3-9.76,0-11-2.86-7.451-6-8c-0.68-1.145-1.23-8.018,0-8s1-7,1-7l-7-1s-13.446,10.081-17,15-10.221,13.394-13,14c-0.705,1.909-15.014,7.024-16,7s-7.574-2.707-8-5-6-16-6-16a25.851,25.851,0,0,0-11-3c-6.155-.19-5.817-8.671-9-8s-5.741,3.691-8,3-5.607-4.1-9-4-5.8,1.641-8,2-6.676-.427-7-4a18.439,18.439,0,0,1,0-5l-7-7a43.267,43.267,0,0,1-1-7c0.115-1.825-8.481-9.75-11-11s-3.835-8.065-5-10-11.878-16.271-15-18-3.454-5.524-7-6-13.559-1.061-16-1-8.988-4.393-16-4C807.782,8.287,793.161,18.609,790,20Z" style="stroke: inherit; filter: none; fill: inherit"/>
  </g>
  <use xlink:href="#heilongjiang" style="stroke: #3cbbba; filter: none; fill: none"/>
  <g style="fill: #008dff; filter: url(#filter-2)">
    <path id="jilin" class="cls-2" d="M849,174s-5.879,8.347-11,7-10.655-6.216-13-5-2.629,8.89-1,10,12.245,9.33,12,11-0.608,7.058,1,9,3.065,7.521,4,9,1.886,4.741,3,5,8.577-11.177,11-9,5.612,5.463,6,8,2,8,2,8,4.913,6.648,6,7,2.52-1.187,5,1,9.284,8.041,11,8,3.329-6.051,4-7,5.04-.144,5,2-0.72,9.019,0,10,8.873,8.132,10,9-0.481,11.491,1,13a126.612,126.612,0,0,0,14,10c2.288,1.126,3-2,3-2s4.01-16.177,10-18c1.417-.266,6.067,3.62,8,4a66.334,66.334,0,0,0,11,0c2.1-.229,3.48-3.873,4-5s-1-3.473-3-5-3.531-6.688,0-7,8-1.236,9-2,7.951-12.341,9-17,6.448-12.184,8-3,0,8,0,8a8.276,8.276,0,0,0,4,0c1.574-.6,3.178-0.372,4,2s3-1,3-1,1.921-13.091,5-13c0.759-1.959,1-11,1-11s-10.27.558-20-11c-5.616.14-8.741,3.4-10,4s-1.354,4.631-3,6-5.683,5.262-10,4c-4.2-2.211-12.788-15.8-14-17s-2.969.314-3,4c-2.173,5.91-3.958,6.169-7,5-1.228-2.259-9.446-10.648-9-12s-1.25-.678-3-1-3.121-5.648-7-6-8.813,1.448-10,2-3.338-.634-3-3-1-8-1-8-2.706-1.018-6,3-15.988,8.516-16,9-13.3-3.75-15-16C859.756,166.693,849,174,849,174Z" style="stroke: inherit; filter: none; fill: inherit"/>
  </g>
  <use xlink:href="#jilin" style="stroke: #3cbbba; filter: none; fill: none"/>
  <g style="fill: #008dff; filter: url(#filter-3)">
    <path id="liaoning" class="cls-3" d="M869,233s0.408,11.564-1,14-4.386.906-6,0-7.977-2.422-12,0c-4.76.414-4.356,9.107-6,10s-21.653,17.61-23,18-5.028,2.421-7,0-4.295-8.355-5-9-5.484-.451-7,4c-2.1,6.169,1.261,9.428,2,12s4.588,7.56,4,9-6.915,8.543-7,10c-3.779,5.511,7.323,8.488,10,10,3.776,4.162,10,6,10,6h3s9.162-16.508,13-17a9.609,9.609,0,0,1,4-4s5.97-2.283,9,0,6.653,3.68,7,6a45.275,45.275,0,0,1,0,9c-0.25,1.871-8.112,8.308-8,11,0.391,3.5,1.593,10.4,6,10s-9.874,8.875-9,11,0.167,3.277,3,3,8.8-.744,10-2,2.04-12.136,5-14,3.04-11.512,30-19a60.344,60.344,0,0,0,2-8s20-19.863,22-19,2-3,2-3-12.57-7.914-14-10-2.785-5.663-2-12c-3.487-7.3-9.933-9.567-10-12s-0.413-8.851-1-10a2.514,2.514,0,0,0-4,0c-1.026,1.479-2.091,5.753-4,6S874.074,233.238,869,233Z" style="stroke: inherit; filter: none; fill: inherit"/>
  </g>
  <use xlink:href="#liaoning" style="stroke: #3cbbba; filter: none; fill: none"/>
  <g style="fill: #ec4f44; filter: url(#filter-4)">
    <path id="shandong" class="cls-4" d="M787,367s-10.447,9.093-13,11-4.381,2.015-7,3c0,0-1.373,1.648-3,4s-14.387,16.411-15,17-1.869,7.677-1,10,5.163,12.4,5,14a13.123,13.123,0,0,0,1,5,5.417,5.417,0,0,1,0,3s-3.834-.963-5,1c-0.355.392-2.7,2.275-2,7s-1.029,2.1,1,4a58.9,58.9,0,0,0,5,4c1.69,1.332,5,4,5,4h5s4.993-1.017,6-1c0.615,0.011,3.512-2.451,5-2s1.818-3.181,2-5,2.078-2.729,3-3,3.393,1.438,4,2,1,4,1,4,5.073,5.591,7,6,6.827-.324,8,0,3.7-2.123,4-3,1.143-2.2,2-2,4.065-.994,6,1,4.474-6.607,6-7,0.41-5.132,7-9c1.04,0.7,3-2,3-2s0.365-6.662,1-8,4.851-8.678,7-9,0.31-8.85,2-9,7.985-3.251,10-6,8.825-11.7,16-14a59.353,59.353,0,0,1,11-3c1.3-.319,2-5,2-5s-0.073-3.841,1-4-2.272-2.136-5-2-16,1.024-18,1-7.736-6.265-14-4-10.036,6.876-11,9-5.071,7.488-5,9-2.213,1.444-4,1-10.551-3.338-11-6,1-10,1-10-2.52-2.56-4-3-3.9.193-6,0-4.632-.576-5,1,0.525,4.13-1,4-3.222.767-4,0S788.993,369.115,787,367Z" style="stroke: inherit; filter: none; fill: inherit"/>
  </g>
  <use xlink:href="#shandong" style="stroke: #3cbbba; filter: none; fill: none"/>
  <g style="fill: #008dff; filter: url(#filter-5)">
    <path id="neimenggu" class="cls-5" d="M789,20a16.292,16.292,0,0,1-8,3c-2.409.3-9.812,2.387-10,6s-0.465,7.286,3,10,6.446,6.758,6,9-2.51,5.417-3,7-1.193,5.156-2,8-5.543,7.188-6,10,0.4,18.183-1,20-11.968,10.909-16,12-21.648-.167-22,1-2.807,13.3-3,15-3,6-3,6,0.238,6.843,0,10-3.275,4.766-5,7-0.452,9.014,4,10,8.3-7.05,14-5a91.787,91.787,0,0,0,14,4c3.464,0.624,3.079-4.74,4-7s2.291-4.032,5-3,1.831-5,7-3a12.981,12.981,0,0,1,7,7s16.908,8.95,18,17-8.343,9.062-10,8-15-1-15-1-10.443,4.247-14,9-13.391-2.992-16,15a117.174,117.174,0,0,1-11,8l-3,2s-9.268-1.251-10,0-11.317,9.606-12,12-2.5,5.583-5,6-9.547.79-12-1-9-6-9-6-6.573.2-9,11,3.031,12.213,5,16,4.928,3.439,4,6-8.448,3.6-12,8-11.2,7.963-12,11-5,7-5,7l-6,3-6,2-4,2s-16.218.8-22-2-7.822.868-9,2-17.429,7-20,9-9,4-9,4-10.335,3.484-11,6-4,4-4,4l-7-3s-3.278-3.395-7-4-13.465-3.578-14-5-11-2-11-2-18.24-13.77-24-14-34.6-2.939-41-2-20-6-20-6l-1,10s4.587,3.565,5,6-0.874,9.69-2,12-0.305,6.217,6,11,4.093,4.895,4,7,0,7,0,7,7.067,0.294,9-2,18.255-5.189,21-4,2,6,2,6-4.788,8.2-8,10-5.591,8.29-1,8,5,2,5,2,3.512,5.339,6,6,5,5,5,5,4.046,8.062,6,9,4.758,8,12,7a26.39,26.39,0,0,0,3-10s3.393-7.157,16-1c16.581-5.865,16-7,16-7s6.119-2.334,7,0a74.606,74.606,0,0,1,2,8s-14.193,9.093-14,12-1.873,9.373,1,13,6.4,10.225,10,12,3.105-.482,5-2,9.7-4.188,12-4,6-3,6-3a6.172,6.172,0,0,0,5-1c2.433-1.753,2.045-9.929,3-12s5.643-9.9,6-12,1-5,1-5,8.426-.831,9-3,8.975,3.494,6,8-7,14-7,14v4s5.883,0.078,8,3,11.05,7.391,13,7,18.675,3.425,21,1-1.136-15.946,1-18,5.731-7.392,8-10,6.3-7.761,9-9,5-7,5-7a17.822,17.822,0,0,0,5,3c2.416,0.778,2.682-3.993,5-4a11.2,11.2,0,0,1,6,2c1.4,0.963,21-22,21-22,3.181,0.639,7.368-.9,12,0s7.5-7,11-8,1-6,1-6-0.808.917-2-3-2.8-9.76-1-12a19.716,19.716,0,0,1,5-4l3-10s6.093-6.15,9-1,2,8,2,8-3.807,5.407,4,6c8.247-5.9,8.525-7.472,13-9s13.129-3.2,15-4-1.327-9.411,0-11,7.168-6.494,10-7,8.043,1.381,9,5,6.535,14.212,8,17,1.369,5.948,18,4c5.226-.972-5.967-14.131-5-17s-0.608-10.756,8-8c4.251,6.791,4.419,9.375,6,10s6.3,1.855,28-19c3.269-4.627,3.231-12.594,15-11,12.734,5.476,10.236-2.137,11-10-4.458-7.5-7-10-7-10s-1.85-8.631-3-11-5-5-5-5-7.926,5.033-9,9-7.066-8.115-7-11-3-5-3-5,0.774-3.888,1-6-10.448-10.376-12-12-2.474-12.62,5-9,8.511,5.2,11,5,6.147-4.389,8-7-1-6-1-6-1.948-4.794,1-5a16.186,16.186,0,0,0,6-2s-0.249-5.251-2-5-4,4-4,4h-5s-11.254-8.174-11-11,1.589-10.148,6-11,2.37-9.273,5-10,5-7,5-7l2-7h6l1,8s3.273,3.026,5,2,1.952-2.664,2-6-3.375-5.97-4-8-1.982-4.426-1-7,2.307-6.7,2-9-5.99-8.461-6-10,7.852-19.986,8-22-2-3-2-3-5.226-15.121-10-14-7.734,3.524-9,7-7.062,2.134-9,3-9.147,1.3-11,3-6.519-1.7-8-9-5.415-12.455-9-12-5,2-5,2v5h-3L787,34S798.23,25.528,789,20Z" style="stroke: inherit; filter: none; fill: inherit"/>
  </g>
  <use xlink:href="#neimenggu" style="stroke: #3cbbba; filter: none; fill: none"/>
  <g style="fill: #008dff; filter: url(#filter-6)">
    <path id="beijing" class="cls-6" d="M748,317s4.729,5.8,0,10c-3.822,3.117-6,3-6,3v8s7.611-.014,9,0,6.669-7.1,11-4,4,3,4,3,12.9-8.165,12-12-6.285-2.032-6-4-0.987-9.864,0-11,1.3-1.26-2-2-2.658-.538-5-1-2.946-3.994-5-3-2.662,2.018-3,3-4.161,4.206-5,6S748,317,748,317Z" style="stroke: inherit; filter: none; fill: inherit"/>
  </g>
  <use xlink:href="#beijing" style="stroke: #3cbbba; filter: none; fill: none"/>
  <g style="fill: #008dff; filter: url(#filter-7)">
    <path id="gansu" class="cls-7" d="M432,269s-21.877-3.115-24-5c-1.48-1.314-5.007,2.4-5,9s1.283,13.556,1,15-26.288-.762-28,2-4.253,1.866-7,12a23.343,23.343,0,0,0-4,5l-2,5a81.833,81.833,0,0,1-15,2c-5.273.673-5.122,7.742-7,9s-0.3,4.324,1,7,1.654,9.224,2,11,3.386,3.137,4,4,14.8-.1,17,0,9,2,9,2,14.715,9.155,16,11,7.43,5.678,9,7,8.906,4.04,12,3a8.467,8.467,0,0,0,6-8c0.06-4.237-1-6-1-6l2-1s6.684-2.144,8,0,2.11,4,4,5,24.872,4.757,29,15c7.671-.769,8.7-2.251,10-3-4.746,2.744,22.57,21.475,25,22,7.834,1.691,9.021-2.091,11-1s3.925,8.694,4,11,2.754,6.994,4,8,0.169,5.13,1,7,3,9,3,9,3.2,3.391,3,6-2.491,3.8-4,5-6.753,5.043-7,7-7.147,8.971-8,9-3.605,4.649-3,7,5.756,5.008,6,6-0.672,4.694-3,5-7.148-2.637-9-4-7.286-4.3-13-2-0.734,7.245,0,9,4.455,7.045,6,8,8.674,8.682,11,10,7.67,0.357,9,0a23.018,23.018,0,0,0,4-2l1-4-3-7s3.036-7.617,9-8,5.467,3.756,6,5,3.128,7.043,4,7,5.807,0.121,7,2,5.947,3.914,7,6,5.548,8.34,6,10,3.3,3.747,4,5,3.613,3.283,7,3,10-1,10-1,5.355-3.383,7-3,3.754-6.109,4-7-1-4-1-4a2.7,2.7,0,0,1-2-2c-0.692-1.872-2.443-3.434-1-4s11-1,11-1,3.445-.577,3-8-1.455-8.6-2-10-4.04-7.624-3-10,3.675-7.409,8-8,12,3.256,14,5,3,0,3,0-0.147-5.471,1-8,2.813-4.41,10-3,4.376,0.685,5-3-0.915-13.638,0-15a26.791,26.791,0,0,0,2-5v-2h-4l-11-7s-9.448-.868-10-2-3.9-4.331-1-7-0.586-3.089,0-5,1-3,1-3l-7,5-4,1-2,7s-5.162,5.076-3,12,6.488-.231,8,6-0.916,8.877-2,9-7.01.961-7,4-6,3-6,3l-11-10s-2.324-18.625-4-22-15-17-15-17l-1-1-4,4s-7.794-7.258-8-8-5.9-5.9-5-9-0.666-8.695,1-10,10.862-9.592,12-11,2.029-9.249-4-9-14.587,5.461-17,6-17.052.263-17,1-2.9,5.691-5,12c-0.746,2.236-5.952-2.606-8-4s-9.241-10.141-10-12-5.372-4.867-8-6-1.981-6.284-3-7-7-1-7-1-0.548-3.416,2-5,10-9,10-9v-6l-4-3s-15.5.42-18,3-8,3-8,3l-3,1,1-11s-9.552-6.273-10-11,0.6-11.841,1-14-0.939-2.868-3-5-2.666-1.822-2-6A28.49,28.49,0,0,1,432,269Z" style="stroke: inherit; filter: none; fill: inherit"/>
  </g>
  <use xlink:href="#gansu" style="stroke: #3cbbba; filter: none; fill: none"/>
  <g style="fill: #008dff; filter: url(#filter-8)">
    <path id="ningxia" class="cls-8" d="M580,357s-7.707,14.331-8,17-0.453,6.986-1,9a9.486,9.486,0,0,1-6,6c-3.2.926-14.467,2.07-16,3s1.418,6.27,3,8,8.316,5.843,9,8,2.848,5.123,3,9,1.872,11,2,13,5.111,8.284,7,10,8,3,8,3,4.874-7.3,9-7,4.89-8.544,3-10-7.942,1.164-8-5-0.368-8.422,1-10,3.286-7.5,5-9,9.108-5.378,10-8a14.129,14.129,0,0,1,2-4s-8.5-5.41-10-8-5-1-5-1-2.428-2.211-1-5,7.439-13.054,8-15-2.917-6.92-5-7S580,357,580,357Z" style="stroke: inherit; filter: none; fill: inherit"/>
  </g>
  <use xlink:href="#ningxia" style="stroke: #3cbbba; filter: none; fill: none"/>
  <path id="shanxi-shan" class="cls-9" d="M652,348s-7.013,7.042-9,10c-3.035.823-13.938,14.25-14,16s1.276,15.134,0,18c-1.654-.966-20.765-2.678-24-3s-5.508,9.437-4,11-2,6-2,6,1.058,6.218,3,6a34.683,34.683,0,0,1,9,1c1.795,0.562,5.992,3.87,8,6s7,1,7,1a75.113,75.113,0,0,0-2,8,120.809,120.809,0,0,0,0,14,15.026,15.026,0,0,1,0,3s-12.336-2.582-14,0-2.295,1.481-2,11c-0.717,2.547-2.489-.756-5-2s-12.426-5.064-16-2-5.717,8.235-2,15,4.521,19.24,0,20c-8.724.038-12,0-12,0s1.818,2.834,4,11c-1.023,2.467-1,7-1,7l9,4,9,1s3.177,4,5,4,3.162-.26,5,1,6,5,6,5,7.635-3.932,12-3,5.406-.824,8,3,8.019,1.571,10,4,6,2,6,2l3-11s1.06-5.583,6-7,1.041-6.342,0-8a58.188,58.188,0,0,0-4-5s7.777-1.827,14-1,9,0,9,0v-7s-2.918-5.72-5-7,0.158-5.156-2-8-4-13-4-13-5.64-2.3-6-5-1.283-10.626,1-14-1.9-12.966-3-16-1.973-13.747-1-16,6-11,6-11-0.97-18.394-1-21,6-7,6-7l1-13,2-6s-0.625-5.158-5-4-4,4-4,4Z"/>
  <g style="fill: #008dff; filter: url(#filter-9)">
    <path id="henan" class="cls-10" d="M663,459s0.192,9.082,2,11,3.149,2.793,3,5-0.319,4.994,3,8c2.737,2.48,2.677,8.118,3,12s1.848,5.354,5,7,2.609,4.382,13,7c3.373,0.849,4.115.682,29,1,1.651,0.021,2.966,2.55,4,4s5.295,6.1,6,7,10.969,2.193,12,2,5.169,4.358,9,5,9.332-1.69,11-2,6.747-6.616,7-7c1.571-.681,1.781-3.882,2-5s-2.369-12.39-7-12-4.291,1.376-5,1-1.487.387-2-1a52.276,52.276,0,0,1-1-7,4.852,4.852,0,0,0-2-4c-2.143-1.486-1.629-2.265-1-4s4.312-5.337,6-8,0.915-11.064,2-11,1.326-2.931,3,2,9,6,9,6,3.134-3.59,4-12c-2.206-8.207-5.365-9.265-7-11s-6,1-6,1h-6s-9.605-6.971-11-9-1-3-1-3v-2l1-2s2.053-4.592,5-4,0.686-2.418,1-5a15.374,15.374,0,0,0-1-6,52.629,52.629,0,0,0-5-2c-2.794-.953-6.848-2.293-11-1s-10.691-.065-13-1a13.144,13.144,0,0,0-4-1s-0.764,8.963-1,10-5,7-5,7-6.685,4.8-8,6-1.384,3.468-5,3-10.6,1.882-12,3-2.726,2.885-4,3-7.488.04-11,3S662.964,456.925,663,459Z" style="stroke: inherit; filter: none; fill: inherit"/>
  </g>
  <use xlink:href="#henan" style="stroke: #3cbbba; filter: none; fill: none"/>
  <g style="fill: #fd9d3c; filter: url(#filter-10)">
    <path id="jiangsu" class="cls-11" d="M775,450s10.784,11.149,11,14,2.66,3.31,5,3,9.743,0.744,11,2a32.207,32.207,0,0,1,6,8c1.807,3.675,5.158,12.528,8,13a22.329,22.329,0,0,0,6,0l1-3,5-1,3,3v4l-1,3-7,2-2,3-1,6-2,4,3,7,4,1,4,2,2,2,5,2h6l4,4c-1.032,3.243-.647,5.876-3,6s-6.11-1.131-6,1-0.89,3.214,0,4,3.789,1.2,6,2a9.266,9.266,0,0,0,8-1c2.938-1.748,5.875,1.457,9,1a22.26,22.26,0,0,0,14-9c4.456-6.248,1.486-.89,2-2-4.548-7.729-3-14-3-14s1.41-6.559,0-8-2.288-3.049-2-4,2.022,0.026,6,0,5.869-.816,6-3-1.943-3.454-3-4-9.106-6.464-12-8-5.724-1.823-6-4-2.129-6.213-3-9-5-8-5-8-3.817-8.789-5-11-1.621-5.515-4-6-8.2-3.486-11-5a21.542,21.542,0,0,1-7-7,23.544,23.544,0,0,1-2-4s-0.7-1.525-2-1-5,6-5,6a8.683,8.683,0,0,1-3,5c-2.618,2.189-2.678,5.521-4,5a24.6,24.6,0,0,1-4-2c-1.321-.824-1.265-0.514-4,1s-3,5-3,5-0.372.011-4,0-4.588,1.136-6-1-4.158-3.735-5-6a10.853,10.853,0,0,0-3-4s-3.154-2.921-5-1S775,450,775,450Z" style="stroke: inherit; filter: none; fill: inherit"/>
  </g>
  <use xlink:href="#jiangsu" style="stroke: #3cbbba; filter: none; fill: none"/>
  <g style="fill: #008dff; filter: url(#filter-11)">
    <path id="shanghai" class="cls-12" d="M874,507s12.876,3.106,12,7a10.5,10.5,0,0,0,1,3s11.984,0.317-5,13c-2.056,1.793-3.893-.138-4,1s-4.035-6.129-4-10-0.132-7.3,1-9S874,507,874,507Z" style="stroke: inherit; filter: none; fill: inherit"/>
  </g>
  <use xlink:href="#shanghai" style="stroke: #3cbbba; filter: none; fill: none"/>
  <g style="fill: #008dff; filter: url(#filter-12)">
    <path id="anhui" class="cls-13" d="M771,452s8.657,11.041,7,14-1.117,10.175-5,10-6.726-6.276-10-9c-2.672-2.223-1.316,9.8-3,12s-6.6,7.328-7,9,4.451,4.415,4,7,1,8,1,8,3.459-2.4,7-1,7.36,2.182,6,16c-4.2,5.062-5.161,4.738-8,7s-1.855,6.285,2,8,6.263,5.1,3,10c0.2,4.611,2.169,5.159,3,7s2.1,2.26,2,4,1.621,6.407,3,7,2.753,2.852,4,3,6.5-3.223,6-8c3.158-.325,1.326-0.858,8,1-0.067,4.286.14,4.693,0,6s5.94,10.459,6-1c1.008-2.25,4.967,1.354,5,2s1.878,2.444,4,2,8.24-1.317,10-2a4.122,4.122,0,0,1,5,1c1.566,1.676,9-9,9-9V546l5-3-1-7s1.493-1.836,6-1,3.4-5.288,3-6-0.9-3.27-3-4-11.026-.767-12-2-4.344-4.406-6-4-5.384-5.763-6-7,0.945-4.674,2-6,0.94-4.086,1-6,4.559-2.8,7-3,2.561-6.889,2-8c-1.618-3.2-5.83-2.579-7-2s-1,3-1,3-4.417.182-6,0-6.771-7.311-7-9-7.006-11.571-8-12-7.583-3.568-12-2-3.831-3.1-5-5-5.252-6.7-6-8-1.841-2.677-3-3S771.38,448.758,771,452Z" style="stroke: inherit; filter: none; fill: inherit"/>
  </g>
  <use xlink:href="#anhui" style="stroke: #3cbbba; filter: none; fill: none"/>
  <g style="fill: #008dff; filter: url(#filter-13)">
    <path id="tianjin" class="cls-14" d="M778,324s0.946,5.231-7,10a10.157,10.157,0,0,0-6,3s6.673,3.527,7,5,0.848,7.924,1,9,8.892,8.426,10,9-0.132-6.108,1-8,2.273-4.3,5-5a8.97,8.97,0,0,0,4-2,6.325,6.325,0,0,1-4-3c-1.532-2.579-6.987-4.266-7-6s0.731-7.073-1-9A34.281,34.281,0,0,0,778,324Z" style="stroke: inherit; filter: none; fill: inherit"/>
  </g>
  <use xlink:href="#tianjin" style="stroke: #3cbbba; filter: none; fill: none"/>
  <g style="fill: #008dff; filter: url(#filter-14)">
    <path id="zhejiang" class="cls-15" d="M851,542c-2.9.774-13-1-13-1l-1,3-4,2-1,10-6,7-4,7-3,4,4,7,5,8,1,8h6l2,7,3,8,9,5h6l9-2h7l2-3s-0.8-9.823,2-13,7-9,7-9,1.185-2.682,2,0,2,3,2,3,3.671,0.124,4-1a24.675,24.675,0,0,0,0-5V571l-4-2s-3.945-3.6,0-4a34.856,34.856,0,0,0,8-2v-6h-3s-3.593,3.529-5,3-2.142-3.169-1-4,9-7,9-7a6,6,0,0,0-5-3c-3.406-.007-9.814-4.339-12-4a11.914,11.914,0,0,0-6,3c-1.206,1.281-1.975,3.158-4,2s-5-5-5-5" style="stroke: inherit; filter: none; fill: inherit"/>
  </g>
  <use xlink:href="#zhejiang" style="stroke: #3cbbba; filter: none; fill: none"/>
  <g style="fill: #008dff; filter: url(#filter-15)">
    <path id="jiangxi" class="cls-16" d="M829,598c-1.393,4.955-10.853,10.782-13,11s-7,3-7,3-1.542,2.917-1,5a34.849,34.849,0,0,1,1,7c0.019,1.808-6.8,8.306-9,11s-2.52,11.052-3,13-7,9-7,9-0.654,4.844,0,7-0.421,6.619-1,9a47.567,47.567,0,0,0-1,7c-0.078,1.32,0,6,0,6s-6.249,2.6-8,3-4.428-1.785-7-1-13.5,5.813-16,5-7.552-3.812-7-5,9.593-9.642,10-11,0.477-4.394-1-4-1.1.164-6,1-8.6,2.61-9,0a86.765,86.765,0,0,1-1-12c0.152-2.642-.272-9.768,0-11s-2.155-3.832-2-6-6.7-18.59-8-21,2.177-13.78,5-15,5.458-12.92,5-14-8-8-8-8,3.242-7.765,9-7a35.764,35.764,0,0,0,6,0l4-6s4.767-8.146,18-10c3.986-.558,11.273-0.826,12-3s2-5,2-5,6.546,0.282,7,1a12.513,12.513,0,0,1,1,6c-0.169,2.74,2.235,5.713,4,4,2.676-2.6,3-7,3-7s2.753,5.1,6,6,14.8-3.661,16-2a6.708,6.708,0,0,1,1,4s-3.388,3.394-4,5,0.658,3.819,2,6,4.691,3.857,5,6,0.582,8.489,1,10S830.393,593.045,829,598Z" style="stroke: inherit; filter: none; fill: inherit"/>
  </g>
  <use xlink:href="#jiangxi" style="stroke: #3cbbba; filter: none; fill: none"/>
  <g style="fill: #008dff; filter: url(#filter-16)">
    <path id="fujian" class="cls-17" d="M830,597s4.837-.45,5,2,2.716,11.516,6,14,3.125,1.3,5,3,7.064,1.522,9,1,4.192-2.047,7-2c2.292-.914,7.225-1.336,9,0s-4.14,3.776-4,5-0.554,7.176-1,8-9.351-.613-10,1-2.524,1.172-2,2,5.8,5.817,8,7-0.44.931-1,3-4.057,4.073-4,7-0.879,4.75,0,6,4.014,3.079,4,4-5.333.539-7,1-1.222,2.336-1,3,2.149,1.327,1,2-4.266.976-5,4-1.854,1.987-2,5-1.5,4.243-3,5-4.412.536-5,1-3.46-.17-4,1a3.606,3.606,0,0,0,0,4c1.047,1.9,2.668,2.965,1,3s-4.567-1-7,4-5.041,2.922-6,6-1.7,5.716-3,6-4.125,3.884-6,2-11.386-20.73-17-21a57.215,57.215,0,0,0-8,0s-1.908-7.558-1-10,0.912-4.6,2-6-1.032-2.664-1-4-1.306-2.411,0-4,0.007-2.558,1-3,4.577-6.954,6-8-0.479-11.025,1-12,6.989-10.261,11-11a55.367,55.367,0,0,0,0-6s-1.2-2.3-1-3-0.426-2.627,1-4c-0.172-3.814,13.707-3.811,19-12C831.017,595.474,830,597,830,597Z" style="stroke: inherit; filter: none; fill: inherit"/>
  </g>
  <use xlink:href="#fujian" style="stroke: #3cbbba; filter: none; fill: none"/>
  <g style="fill: #008dff; filter: url(#filter-17)">
    <path id="taiwan" class="cls-18" d="M898,658c-4.253,1.453-11.116,9.008-12,12s-2.755,5.663-3,8-2.213,3.786-2,7a8.4,8.4,0,0,1-1,5s-4.756,3.258-5,6-1.612,6.694,0,8,0.415,5.206,0,6-1.821,6.747-1,9,2.206,1.956,3,5,1.077,4.725,3,5,4.074-1.055,6,4,2.374,5.736,4,6a4.018,4.018,0,0,0,3-1s0.617-5.611,1-13,1.493-7.469,2-8,3.76-10.492,7-12-0.9-4.54,2-6-0.964-3.145,1-3-1.5-9.2-1-11-1.109-9.676,0-11,1.515-3.5,2-4,0.955-9.035,0-10A9.4,9.4,0,0,0,898,658Z" style="stroke: inherit; filter: none; fill: inherit"/>
  </g>
  <use xlink:href="#taiwan" style="stroke: #3cbbba; filter: none; fill: none"/>
  <g style="fill: #008dff; filter: url(#filter-18)">
    <path id="hubei" class="cls-19" d="M647,527s12.262,4.722,15,13c2.09,4.044,0,4,0,4s-9.015,6.966-11,9a5.966,5.966,0,0,1-4,2H630a2.985,2.985,0,0,1-2,1c-1.3.107-2,2-2,2l1,2s1.379,2.567,1,4a8.374,8.374,0,0,1-2,3s0.8,4.584,1,5,14.9,12.4,16,17c1.836,0.979,5-3,5-3s4.365-9.449,6-9,1.28-3.9,7-2c6.707,1.434,7-1,7-1l1-4s-2.7-1.73-3-4-0.164-1.978,1-2,3.4-1.206,8,0,4,2,4,2,4.66-.407,7,1,13.99,8.091,16,9a19.943,19.943,0,0,0,8,1c1.71-.233,3.156-5.764,5-5s2.357-.7,4,2,2.608,1.7,5,4,3.414,2.128,5,3,5.706,3.138,7,5,2.544-4.983,5-5,6.428-1.921,9-1,5.03-11.919,18-14c1.666-2.321,5.135-2.463,9-2s2-1,2-1-4.428-3-4-4-2-7-2-7-2.74-6.311-4-7,0-4,0-4,4.4-3.256,0-6-7.367-4.623-7-6a2.781,2.781,0,0,0,0-2s-10.381,1.022-12,0-5.254-4.211-8-4-6.333-2.549-8-2a3.068,3.068,0,0,1-3-1s-6.689-11.736-17-11a136.6,136.6,0,0,1-19,0s-17.055-3.577-21-14c-15.042-3.12-21.43,1.45-23,1s6.295,4.745,6,9-4.122,3.388-6,6A23.156,23.156,0,0,0,647,527Z" style="stroke: inherit; filter: none; fill: inherit"/>
  </g>
  <use xlink:href="#hubei" style="stroke: #3cbbba; filter: none; fill: none"/>
  <g style="fill: #008dff; filter: url(#filter-19)">
    <path id="xinjiang" class="cls-20" d="M409,263s-3.753-1.644-3-3,2.633-4.834,2-6-6-6-6-6-2.6-5.316-2-9-0.309-3.858-2-5a41.074,41.074,0,0,1-5-5s-5.889-1.878-7-1-4.048-4.916-7-7-8.79-10.469-11-10-13.271,1.245-15,0-7.986-4.055-9-5-7.672-2.225-9-2-8-6-8-6-2.941-4.426-2-8,0.3-5.571,2-6,4.784-5,6-5,2.088-4.428,2-5-0.543-10.91-1-12c-0.729-1.739-4.285-7.2-4-8s-1.046-9.986-2-11-5.622-9.433-9-9-10.023-2.989-11-4-8.125-10.978-8-11-4.68-11.838-3-13c-0.378-1.074-2.784-2.271-5-2s-6.848,1.037-7,2-4.388,4.392-5,7-1.054,1.794-2,2-9.779.249-10,1-6,.92-7,3-3.932,2.363-4,3-2.116,3.479-2,4-0.06,3.748,0,6a7.642,7.642,0,0,0,1,4c0.442,0.832-.63,4.016-1,6s-0.12,1.7-1,2-1.693-.937-2,0-1.718,2.359-2,2-7.138,1.1-9,0-2.931-3.32-6-3a20.615,20.615,0,0,1-5,0s-7.061-6.326-8-6-3.927-3.633-5-3-5.043,2.233-5,3-0.993,2.467-1,3-3.736,5.467-5,7-0.546,2.926-2,5-5.067,8.771-7,9-2.008,4.426-2,6,0,4,0,4l1,1s0.567,2.618,0,3-1.561.364-2,1-1.035-.2-2,0-5.8-2.407-10-2-6.155-3.524-10-3-12.388-1.7-14-1-3.9-.347-4,1a4.513,4.513,0,0,0,1,3,5.03,5.03,0,0,1,1,4,38.174,38.174,0,0,1-1,6c-0.494,1.377-1.354,3.951-1,4s1.6,3.527,2,6,0.025,6.234-1,8,0,5,0,5-1.315,4.7-3,5a11.416,11.416,0,0,0-5,3c-0.438.718-3.942,10.695-7,12s-3.263,5.825-4,7-6.66,6.928-8,6-2.143,2.553-19,3c-1.307,3.044-4,1-4,1s-7.367-3.607-8-3-6.931,2.117-8,4-8.511,2.084-10,1-7.109,9.979-10,10-6.075,1.553-7,0-4.534-2.64-4-4,0-6,0-6-4.252-.9-6,0-7.385,4.483-10,4-12.943-.069-15,1-1.608,1.313-3,2-3.9,1.355-4,3-2.945,4.038-3,4,0.751,1.276-1,2-6.12.756-6,2-0.546,3.761,2,5a3.82,3.82,0,0,1,2,5c-0.592,1.162-4.094,3.749-5,3s-0.449,2.065,0,3,0,4,0,4,0.42,2.932,3,3,0.788-1.555,5-2c1.809-.191,4.566-1.489,6,1s3.233,0.745,3,5,1.119,18.1,0,19-7.192,7.144-10,6-1.67,6.046-2,7,4.683,4.837,7,6,9.714,5.307,11,8,2.184,3.386,2,5-0.629,4.045-2,5-1.859,9.109-1,10a9.127,9.127,0,0,0,7,2c3-.538,3.125,3.8,3,4s4.517,8.478,6,9,4.232,1.778,7,1,4.321,2.117,5,2,1.283,3.931,1,5-2,4.219-2,6,3.031,10.2,7,12,8.062,8.784,14,9,6.551,2.494,10-2,4.3-7.755,9-11,3.6-6.418,9-6,13.512,7.265,16,9,2.711,0.134,6,0,8.051-1.349,9-2,2.4-5.917,6-5,6.93,0.1,8,8,7.974,5.72,11,6a20.7,20.7,0,0,0,11-2c3.54-1.891,4.891.5,8-1s7.039-4.554,12-1,9.371,2.138,11,2,11.278-12.345,18-11,10.68,5.226,21,3,14.606-1.965,17,1,7.868,4.95,8,7a50.553,50.553,0,0,0,1,5c0.076,0.919,4,2,4,2l5-1,3-3s3.932-.569,6,2,4.627,4.392,8,4,6.308,0.374,5-7-3.794-4-3-7,2.745-5.763,8-8,1-8,1-8a57.864,57.864,0,0,0-7-8c-3.037-2.556-3.145-2.4-5-4s-3.506-5.5-2-6,2.374-.856,0-4-2.787-6.644,1-6,18.265-.7,23-2,16.29-8.56,23-7,4-1,4-1-2.829-5.823-2-10-2-4-2-4v-5s3.971-7.726,7-9,10.4,1.23,14-3,1.23-5.053,3-6,4-4,4-4,0.427-5.686,2-6,4.245-7.685,13-6c2.611-.7,17.491-2.294,20-2s-4.29-13.718,0-19C403.005,267.2,406.718,262.426,409,263Z" style="stroke: inherit; filter: none; fill: inherit"/>
  </g>
  <use xlink:href="#xinjiang" style="stroke: #3cbbba; filter: none; fill: none"/>
  <g style="fill: #008dff; filter: url(#filter-20)">
    <path id="xizang" class="cls-21" d="M71,402c-0.5.482-7.622,9.044-7,16s3.456,13.512,6,16c-0.816,4.758-.084,12.877-2,15a2.578,2.578,0,0,1-1,3c0.22,0.075-2.646.575-3-1-1.92-1.064-2.83-3.958-3-4s-3.841-5.65-6-4c-3.415.364-4.563,1.848-4,3s0.257,3.667,2,5,0.429,2.053,1,3-1.383,4.032-1,6,0.609,8.4,0,9-6.015,2.735-5,6c-0.331,3.667.191,3.315,1,4s4.726,3.938,8,4,2.684,0.726,5,2,4.63,1.388,6,3,4.624,2.831,5,6c1.706,2.911,3.368,3.525,4,6s2.408,4.01,2,6,4.237,9.871,6,11,7.421,0.2,9,0,5.419-3.933,7-4,4.051-3.662,8,5,6.781,7.927,9,11,5.708,2.937,8,5,0.84,6.9,2,8,4.006,2.312,6,3,0.577-1.618,6-1,4.876-.162,5,4-0.3,10.781,3,13,7.117,4.8,10,5,5.159,0.526,6,3,4.36,4.039,6,4,2.417,7.865,4,9-0.286,2.945,1,3,14.971-2.027,17-1,9.394,10.21,12,11,4.93-1.868,10-3,10.581-4.652,13-3,6.463,1.876,2,8-0.268,8.615,0,9,2.269,3.442,5,4,4.816-.539,5-3,0.032-9.244,3-9,6.336-3.975,8-7,8.387-.894,9-1,5.959,6.067,11,6,4.34,3.654,5,5,7.646-.051,10,2,2.832,5.646,4,7,5.791,4.459,8,4-5.112,6.584-5,10,4.574,5.868,8,5,12.238-2.351,14,0,7.623,0.6,10-1,6.681-1.72,8-1,3.465-7.629,8-8,4.368-1.7,6-1,1.2-6.974,11-8c3.516-.831,5.266-5.865,6-5s5.6-3.7,8-4,5.242-.4,7,3,10.605,1.2,11,3,4.654,9.61,8,9a13.906,13.906,0,0,0,6-3s-2.547-9.5,3-10,5.881-4.207,10,4,2.486,3.87,5,4,6.434,0.758,7-1,1.618-7.03,1-10-2.664-12.257,5-11c3.909,3.395,4,5,4,5s4.18-4.146,3-9-0.695-8.729-3-11,0.669-8.061,0-9,3.115-3.867,4-4-0.507-5.953-1-8-5.105-8.239-5-9,0-7,0-7-2.64-5.314-5-7-6.71-7.558-7-9a20.7,20.7,0,0,0-3-6c-0.721-.678-6.828-6.074-9-6s-7,7.03-7,8-5.188,6.684-7,7-2.7,3.317-4,1a28.934,28.934,0,0,0-4-5,6.757,6.757,0,0,0-4,3c-1.126,2.265-1.312,4.573-3,4s-7.649-4.836-8-9-2.54-9.137-4-10-6.159-9.989-14-10-22,1-22,1-10.173-2.859-14-8c-1.836-2.114-14.135.987-23-13-3.031-4.75-6.179,5.562-21-11-5.805-8.247-5.573-29.686-6-41,3.458-8.72,5.622-9.119,2-14s-2.492-7.907-2-11-4.882-3.784-13-8c1.473-3.272-11.837,3.032-17,1-7.59,1.3-11.182-1.484-19-4-4.829-1.554-12.7,12.377-16,12s-6.352.777-9-1-6.871-5.229-10-3-6.9,3.791-9,3-9.069,1.487-11,2-8.074,1.72-10,0-5.524-3.244-5-6-1.879-6.543-6-7-6.156,4.118-8,5-9.686,2.1-13,1-15.167-10.562-20-8-10.051,8.725-10,10c0.01,0.258-10.628,8.219-8,8C82.976,406.335,76.3,406.443,71,402Z" style="stroke: inherit; filter: none; fill: inherit"/>
  </g>
  <use xlink:href="#xizang" style="stroke: #3cbbba; filter: none; fill: none"/>
  <g style="fill: #008dff; filter: url(#filter-21)">
    <path id="hunan" class="cls-22" d="M644,589s-0.957,25.533,2,31-1.052,10.529-8,12c-4.91,1.04-4.223,2.363-4,5s3.844,3.336,7,3a23.632,23.632,0,0,0,5-1s-0.516,12.28,1,14,4,5,4,5l4,5s3.308,2.382,9,0,8-5,8-5,7.609-3.353,9-2,1.344,5.462,4,7,2,5,2,5-2.254,6.85-4,9-2,8-2,8,4.668-.836,6,1,2.56,0.7,3,4-1.31,2.223,0,3,6.01-1.173,8,0,7,2,7,2l3-4s0.507-2.675,1-5,0.008-6.586,2-6,2.954-1.516,5,1a15.5,15.5,0,0,0,8,5c2.456,0.468,6.8-1.375,6-4s-5.912-6.264-6-7-2.058-1.2,4-1,14.3-.232,15,0-1.786-17.308,0-20-1-5-1-5,0.762-2.45,0-4-6.055-17.743-9-21,3.871-14.33,7-18,3.318-10.36,2-12-3.8-9.348-14-14-10-7-10-7l-6-1s0.01,4.343-2,5-3,2.7-25-11a21.592,21.592,0,0,1-6,0,5.91,5.91,0,0,0-5-3c-3.338.094-6.957,0.191-7,2a61.384,61.384,0,0,1,0,7c-0.3,3.355,2.015,2.852-3,3s-6.208-.553-7,0-4.536,2.359-5,4S645.973,587.514,644,589Z" style="stroke: inherit; filter: none; fill: inherit"/>
  </g>
  <use xlink:href="#hunan" style="stroke: #3cbbba; filter: none; fill: none"/>
  <g style="fill: #008dff; filter: url(#filter-22)">
    <path id="guangdong" class="cls-23" d="M704,696s0.842,8.558,0,10-5.544,2.888-6,6-1.76,7.521-2,10-14.694,13.419-15,17-10.276,6.906-11,9-6.2,7.062-7,8-3.051,1.045-3,5-0.144,5.414-1,6-4.735,1.533-5,4a11.685,11.685,0,0,0,1,7c1.182,2.268,4.535,4.727,5,7s-0.27,6.024,1,7,2.9,2.738,4,3,4.636-.779,6-1,2.8-1.147,3-2a7.061,7.061,0,0,0-1-5c-1.246-1.838-6-6-6-6s-0.525-3.193,0-3,2.275-1.386,3-2,2.881-3.334,3-5c0.105-1.469,2.793-2.815,3-4,0.173-.991,6.318.212,8-1s8.331-2.239,9-3,5-2,5-2a2.5,2.5,0,0,1,3,0c1.533,1.156,3.686,1.425,4,2s2.451-.72,3-2,2.37-3.235,4-3a33.391,33.391,0,0,0,5,0,45.776,45.776,0,0,1,4-3c1.8-1.147,4.7-3.2,5-3s5.708-.721,8-6a27.861,27.861,0,0,1,5-8s0.881-2.968,1-3a1.242,1.242,0,0,1,2,0c1.079,1.174,3.963.85,5,3s3.205,1.379,3,3-0.674,1.247,1,3,6-3,6-3c0.528-.331-1.856-2.34,2-2s4.611-3.35,3-6c1-.954,3.425-1.262,4,0s2.028,4.781,5,1,4.075-2.4,6,0,3.372,0.759,5-1,13.6-10.927,17-11,0.475-1.044,1-1c2.348-.821,2,0,2,0a6.018,6.018,0,0,0-1-5c-1.793-2.713,2.063-4.819,4-5s6-4,6-4l3-1s-10.357-19.3-14-20-6.126-3.334-10-2-4.656,4.639-7,5a21.229,21.229,0,0,0-4,1s-3.585-2.033-5-2-6.334,1.1-7,2-7.426,2.947-8,3-3.794.808-9-4c-1.61-2.164,5.866-7.589,7-9a27.578,27.578,0,0,1,3-3v-4s1.535-.489-2,0-7.061,1.952-9,2-4.8.873-5,0-4.332-1.278-5-1-13.8-.658-14,0a1.923,1.923,0,0,1-1,1s3.464,3.434,5,5a2.674,2.674,0,0,1,0,4c-0.813.731-.154,2.119-1,2s-3.544.331-5,0-6.868-4.974-7-6-5.028-.28-5,0-1.452,4.29-3,11A37.938,37.938,0,0,1,704,696Z" style="stroke: inherit; filter: none; fill: inherit"/>
  </g>
  <use xlink:href="#guangdong" style="stroke: #3cbbba; filter: none; fill: none"/>
  <g style="fill: #008dff; filter: url(#filter-23)">
    <path id="guangxi" class="cls-24" d="M566,725c0.193,2.245.026,5.6,3,7s10.433,2.825,14,3,5.353-.28,7,1,3.65,1.933,4,3a5.9,5.9,0,0,1-1,6c-2.049,2.213-1.771,7.256-1,8s3.991,4.679,7,7,5.379,5.38,8,5,5.875,0,8,0,8.2,2.481,9,2,2.217-2.866,5-1,4.243,0.494,4,0a6.68,6.68,0,0,1,0-4c0.539-1.612,1.116-2.29,2-2s2.869,0.367,3,2a3.637,3.637,0,0,0,3,3c1.261,0.192,1,3,1,3l1,2h4s2.324-3.121,5-3,3.23-2.38,4-1,5,0,5,0l-1-3s-0.571-2.148,0-3-0.6-1.379,1-2,5.5-6.341,7-8a48.979,48.979,0,0,1,7-6c2.63-1.921,4.2-2.207,5-3s-0.125-3.372,1-4,8.626-8.674,14-12c0.791-2.068,1.437-3.575,1-4s0.726-4.737,1-6a21.714,21.714,0,0,1,1-3s1.917-4.676,5-5-0.159-11.869,0-12a10.132,10.132,0,0,0-3-2c-0.205.144-5.063-.172-6,0s-3.822.088-4-1-1.332-7.033-3-7-5,0-5,0-2.734-1.859-1-4,3.29-6.612,4-9,2.657-2.8,2-5-2.383-4.648-3-6-1.478-4.719-5-5-6.781,1.372-7,2-5.38,5.057-10,6c-0.57-.175-5.2-0.5-6-1s-0.611.746-3,1-6.836-.332-9,4c-6.059,4.455-9.918,7.654-11,8s-5.279,4.143-7,4-2.073,1.6-3,2-2.083.66-5,0-11-7-11-7c-0.879-.15-5.04-1.955-6-1s-1.07,3.234-1,5c-0.066-1.666-7.827,8.538-6,5-1.053,2.04-3.723,7.309-5,8s-6.034,3.192-7,3-6.327-.885-7-3-5.919-5.2-8-5-7.55-1.035-8,0-6.132,3.373-6,7-2.753,4.256,0,6,5.012,4.882,9,5a14.782,14.782,0,0,1,7,2c0.683,0.307,2.924,1.382,4,2s5.724-.049,7,1a7.043,7.043,0,0,1,2,5c0.031,1.775-5.288,9.132-7,9S565.807,722.756,566,725Z" style="stroke: inherit; filter: none; fill: inherit"/>
  </g>
  <use xlink:href="#guangxi" style="stroke: #3cbbba; filter: none; fill: none"/>
  <g style="fill: #008dff; filter: url(#filter-24)">
    <path id="chongqing" class="cls-25" d="M610,520s0.147,7.9-1,10-7.663,7.953-8,13-9.053,13.78-11,14-6.471.713-8-1-9.212-9.793-12-9-3.181,4.009-3,7,1.489,5.062,2,8-0.8,11.37-1,13,0.081,5.01,2,7,6.458,4.721,6,7-0.482,11.893-2,12,9.7,4.957,13,5,10,0,10,0,9.943-7.564,11-10,3-8,3-8,7.555-5.636,12,0c4.485,5.686,4.043,8.888,5,11s7.579,11.506,11,13,5,2,5,2l1-24s-6.836-7.974-8-9-6.936-6.386-9-8-2.416-8.417,0-10-1.032-4.372-2-5,0.709-3.572,7-3a136.339,136.339,0,0,0,16,0s10.928-10.5,13-11-1-5-1-5-4.269-9.136-11-11-10.11-4.7-12-5-2.769-.936-6-2a4.035,4.035,0,0,1-3-4s-8.509-1.769-10-1S610.972,516.823,610,520Z" style="stroke: inherit; filter: none; fill: inherit"/>
  </g>
  <use xlink:href="#chongqing" style="stroke: #3cbbba; filter: none; fill: none"/>
  <g style="fill: #008dff; filter: url(#filter-25)">
    <path id="hebei" class="cls-26" d="M820.779,318.14l-14.5-10.627-5.8-2.9L801,301l7-10H792s-2.85-1.695-3-3-3-7-3-7-6.223-13.666-9-15-6.753-2.315-10,1a35.041,35.041,0,0,1-6,5v12l-13.671,1.294S741.282,290.718,737,293c-2.682,1.429-3,3-3,3s-6.316-1.564-6-3a20.974,20.974,0,0,1,2-6c0.736-1.458-5.326-7.951-7-7s-3.772,1.981-4.664,4.328S715,293,715,293s-4.408,2.5-5,4a14.045,14.045,0,0,0,1.57,11.479C712.268,309.6,713,314,713,314v4s6.35,4.192,6,5-6.847,5.644-7,7,12.447,13.279,13,16-2.975,4.584-2,6c-6.381.875-10.729,11.47-12,15s7.926,9.051,9,13,7.991,10.408-8,28c0.93,1.132,7.079,10.255,8,10s12,3,12,3,13.438-2.665,15-1,6.916,3.491,7,4-5.278-14.626-5-16a51.677,51.677,0,0,1,1-6c0.731-2.68,9.6-10.133,12-14s6.409-7.531,8-7,15.656-12.907,17-13,0.55-3.639-.047-4.455S773,350,773,350s1.522-9.862-5.376-11.573c-2.888-1.523-6.056-6.687-8.7-5.8s-8.7,4.83-8.7,4.83L743,337v-7s6.945-2.744,8-7c0.669-2.7-2.705-5.826-2.705-5.826L750,316l7-7s0.272-4.375,2-4,3.242-2.081,4,0,4.511,2.6,7,3,1.972,0.393,2,3,0,11,0,11,3.31,0.69,5.289.97a4.2,4.2,0,0,1,2.9,1.932l0.966,7.729L784,339l5.852,4.258,4.833,0.966s13.014-4.273,14.5-8.695S820.779,318.14,820.779,318.14Z" style="stroke: inherit; filter: none; fill: inherit"/>
  </g>
  <use xlink:href="#hebei" style="stroke: #3cbbba; filter: none; fill: none"/>
  <g style="fill: #008dff; filter: url(#filter-26)">
    <path id="shanxi-jin" class="cls-27" d="M712,318s-4.928,7.362-9,8-12.648-.14-14,1-10.034,9.4-12,13-8.492,6.1-9,10c-0.185,1.422-1.75,5.68-3,7s0.31,11.97-1,13-5.472,4.345-5,7,0.554,11.95,1,14-0.38,7.742-2,10-5,10-5,10l2,15s4.843,11.234,2,17-0.419,14.961,5,16,8.791-5.384,12-6,7.026-3.513,8.577-2.475,5.456-2.9,6.765-3.865,6.6-2.888,9.658-2.66,8-2,8-2l8.436-8.865S719.914,430.147,720,426s-1.664-10.254-1.664-10.254l-5.8-6.762s4.242-3.962,4.832-5.8,15.886-15.386-5.8-32.846c-0.484-8.281,7.23-16.978,9.665-16.423s5.866-7.82,3.866-10.626c-4.174-7.838-12.564-12.559-12.564-12.559s5.449-4.409,6.765-6.763S712,318,712,318Z" style="stroke: inherit; filter: none; fill: inherit"/>
  </g>
  <use xlink:href="#shanxi-jin" style="stroke: #3cbbba; filter: none; fill: none"/>
  <g style="fill: #008dff; filter: url(#filter-27)">
    <path id="qinghai" class="cls-28" d="M270,407s6.83,7.216,1,14c-1.464,4.072.361,6.473,0,9s0.065,26.251,2,29,0.961,11.131,16,19c6.562-.127,5.615-1.688,7,0,4.34,3.539,7.234,5.425,8,8s8.808,4.3,10,4,6.011,0.49,7,2,7.8,6.3,11,7,26.1,0.639,28,0,9.543,5.989,10,10c3.74,4.648,5.449,7.652,4,11s9.149,7.973,10,8,1.083-3.884,2-5,3.808-2.3,5,0,4,2.056,5,3,8.316-5.54,9-7,5.284-9.951,8-9-2.753-6.988,0-10,2.927-6.479,4-7,1.69-2.393,0-5-3.771-3.581-4-5-0.466-5.09,0-6,9.14-2.074,13-1,7.367,1.741,8,4,3.576,8.476,4,11,3.242,5.582,5,7,2.879,1.657,4,3,3.5-.666,5,2,1.677,3.485,3,3,3.525-4.079,5-3,4.493-.061,5,2,5.273,2.389,6,2,1.609,3.348,3,3,2.4-3.086,5-3,3.78-2.467,7-2,3.088-.218,3-3-0.272-2.175-1-6-2-10-2-10a24.565,24.565,0,0,0-4-6c-2.137-2.041-3.609-6.5-5-8s-1.032-6.225,3-7,9.106,0.043,11,2,8.3,3.82,10,3,2.864-2.993,2-4-5.853-3.729-6-5-0.115-6.6,2-6,1.968-3.26,4-4,4.894-6.114,5-7,6.449-7.28,10-8-0.244-5.83,0-7a2.193,2.193,0,0,0-1-2s-2.23-2.46-1-8c-3.576-4.655-1.586-5.7-3-7s-3.379-11.032-4-12-2.256-8.15-4-9-9.294,1.317-11,1-24.117-18.022-25-21c-3.881,2.114-10,1-10,1s-4.182-8.384-29-13c-2.1-.111-4.875-5.835-6-6s-6.745.277-8,2,0.473,7.273,0,9-3.273,5.393-6,5-5.046,1.447-21-12c-4.154-4.122-13.592-9.61-15-10s-23.142-3.936-27-3-12.261-1.951-13,0-14.26,3.984-18,7-24,2-24,2l1,4s3.152,5.786,2,6c-2.476.459-1.179,4.287,1,5s9.538,9.44,11,12,2.306,5.722,1,7-7.745,5.845-8,8-6.457,2.98,0,7c3.652,2.274,2,7,2,7s-3.784,2.431-7,1-9.363-5.824-11-6-2.778,2.539-5,3S271.5,409.1,270,407Z" style="stroke: inherit; filter: none; fill: inherit"/>
  </g>
  <use xlink:href="#qinghai" style="stroke: #3cbbba; filter: none; fill: none"/>
  <g style="fill: #008dff; filter: url(#filter-28)">
    <path id="sichuan" class="cls-29" d="M426,523s2.872,5.546,4,8,6.45,7.159,6,12,3.469,6.639,5,10,0.361,6.713,0,8-2.857,1.271-3,5c-0.171,4.441-1.637,5.261-1,8,0.514,2.21,3.427,7.968,3,10s2.3,5.9,0,8-2,4-2,4,4.782,9.957,5,12,4,1,4,1-0.93-8.606,0-10,2.379-5.621,4-4,4.371,4.192,4,7,3.42,10.216,6,12,2.133,3.977,5,4a24.246,24.246,0,0,1,6,1s7.917,17.735,11,20,4.592,6.213,3,7-3.137,3.745-3,6,1.151,5.262,3,6,6.979,1.745,8,4,2.58,2.42,4,3,18.924-5.1,21-7,2.069-7.069,2-8,0-4,0-4l-4-3s-2.846-5.7-1-7,8.113-5.889,10-8c2.789-3.12,4.269-9.127,0-13a3.324,3.324,0,0,1-1-4s0.81,0.534,3-3,0.528-4.215,2-5,5.424-3.852,8-2,4.961,3.369,5,6,3.268,11.563,6,12,8.169,1.439,9,1,4.571-7.287,6-5,0.516,5.152,1,7,7.945,4.985,13,4,7,0,7,0V616s-3.314-4.836-6-5-7.1-.641-8-3-0.521-6.853,4-7c-0.645-2,.555-10.1,1-12,0.491-2.1-4.48-8.309-6-9s-1.661-13.76-1-16-1.241-3.549-2-8-0.942-8.333,1-8,3.01-2.791,6,1,5.694,4.5,7,7,10,1,10,1,8.806-6.662,9-9,1.787-5.057,2-6,4.915-10.951,8-12-0.6-8.358-1-10-4.155-5.479-6-6-5.488.443-6,0-3.028-5.118-4-5-8,.605-9,0-6.082-3.942-8-4-5.638,2.056-7,3-11.343.9-14,0-10.07-6.366-10-10-4.613-6.331-6-8-8.32-6.876-10-7a8.851,8.851,0,0,1-5-3c-0.9-1.19-3.484-4.149-3-6s-2.285-3.246-4-3-8.078,2.548-9,5-1.206,6.717,1,9-0.236,4.469-2,5-5.306,7.524-18-4c-4.66-4.617-2.718.084-2,2a46.019,46.019,0,0,1,2,10c-0.03,2.029,1.715,3.129,1,5-1.1,2.884-2,2-2,2a8.364,8.364,0,0,0-5,1c-2.036,1.372-4.149-.83-5,1s-1.675,2.027-3,2-4-2-4-2a15.592,15.592,0,0,0-3,0c-1.291.382-3.168-3.165-5-3s-4.384-1.006-6,1-5.155.306-5-1-0.628-2.234-3-2-9.024-6.21-9-8-6.056-11.844-6-15-17.625-3.037-20-2-1.386,6.3-1,7,3.847,3.673,4,5,2.1,3.718,1,5-2.31,5.061-4,6-1.64,6.8-1,8,5.388,4.975,6,7,4.4,5.682,5,6A13.064,13.064,0,0,1,426,523Z" style="stroke: inherit; filter: none; fill: inherit"/>
  </g>
  <use xlink:href="#sichuan" style="stroke: #3cbbba; filter: none; fill: none"/>
  <g style="fill: #008dff; filter: url(#filter-29)">
    <path id="yunnan" class="cls-30" d="M564,617c0.345,0.457,1.3,4.339,3,7s-7.01,7.9-8,8-3.534.573-5,0a32.931,32.931,0,0,0-7-2,14.813,14.813,0,0,0-9,2c-2.06,1.386-4.679,4.542-5,6a18.458,18.458,0,0,0,0,7c0.554,2.789.451,4.236,1,5s4,1,4,1,0.347-2.185,6-1,6.365,1.566,6,6-6.686,16.31-7,16,3.3,5.921,6,6,3.606,0.943,3,5,0.5,9.71,0,14c-0.3,2.568,4.06,5.9,7,7s5.87,0.515,8,2,4.263,0.416,5,2,6.023,0.467,8,1,3.451,5.925,2,7c-0.989.732-3.162,6.494-5,7s-9.515-.09-11,1-14.967,7-16,13c-3.433,1.28-4.368-.057-7,1s-5.973,6.819-9,6-5.865-4.084-8-4-8.265,4.529-10,4-6.826-5.65-10-5-8.846,7.9-10,7-5.071-1.682-7-3-2.088-.236-3,1-2.789,3.493-2,5,4.961,6.707,4,9-0.6,9.021,0,10,2.889,3.55,2,5-1.012,4.465-3,4-7.021-1.768-9-4a24.305,24.305,0,0,0-3-3s1.083-9.164,0-10a5.73,5.73,0,0,0-5-1c-1.815.639-7.075,5.694-9,6s-6.3-2.125-7-4-5.189-5.572-6-8-7.66-1.79-9-2-5.614-3.029-5-5,0.13-5.925,1-8,1.85-2.679,2-5a48.858,48.858,0,0,0,0-5s-5.091-.182-8-3-1.823-4.068-2-7-3.572-6.893-4-8,0-6,0-6-4.033-4.543-7-2-5.031,4.53-7,5-5.913.841-6-1-1.064-16.257,0-18,4.571-15.745,20-22c1.235-4.075,2.734-7.872,3-10s0.83-4.124,1-7-1.079-8.222,0-10,2.513,0.508,3-3a63.813,63.813,0,0,0,0-10s-8.994-3.822-10-7a10.3,10.3,0,0,1,0-6l7-1s0.85-4.161,1-5,1.611-12.994,0-14,8.131-8.847,10,0,4.121,13.19,6,15,3,1,3,1-2.43-11.9,0-12a6,6,0,0,0,4-2s4.073,3.716,4,6a15.206,15.206,0,0,0,2,7c0.9,1.426,4.344,6.355,6,9s6.665,0.31,8,1,10.588,21.163,15,23-1,5-1,5-5.271,7.169,0,10,2,3,2,3,4.566-.5,6,2,5.133,2.187,6,3,12.339-2.531,14-4,6.752-3.106,7-5,1.381-6.542,1-8-3.542-2.833-5-4-1.563-4.654-1-6,10.082-6.469,11-9,2.819-7.383,1-10-2.973-5.579-3-7,1.362,1.178,3-2,3-6,3-6,5.839-4.83,8-2,2.291,1.591,5,5c3.157,3.973.911,13.146,7,13s6.581,1.6,8,0,5.558-5.639,6-4S563.655,616.543,564,617Z" style="stroke: inherit; filter: none; fill: inherit"/>
  </g>
  <use xlink:href="#yunnan" style="stroke: #3cbbba; filter: none; fill: none"/>
  <g style="fill: #008dff; filter: url(#filter-30)">
    <path id="guizhou" class="cls-31" d="M567,624s-1.99,7.5-7,8-7.645.174-9-1-7.285-3.034-13,1c-3.278,2.314-5.172,6.451-5,8s-0.151,7.773,1,9,5,2,5,2,5.513-1.641,7,0,2.063-1.857,3,0,2.539,4.3,1,6-5.565,13.962-6,15,4.63,6.428,8,6c-1.827.232,1.436,3.879,1,5-0.356.915-.824,6.437-1,7s4,0,4,0,1.206-3.279,4-3,7.822-1.866,10,0,6.795,6.058,9,7,9-.105,10-1,5.985-7.009,7-11,3.656-1.2,4-3-0.9-5.788,3-5,3.584-.181,5,1,8.485,7.076,11,7,10.388-2.511,14-6,12.118-7.806,13-10,6.106-3.2,8-3,1.222-2.542-1-4a11.9,11.9,0,0,1-4-6c0.044-.642-2.175-13.99-2-15s-6.23,2.213-8,2a22.868,22.868,0,0,1-4-1s-1.481-4.555,0-5a93.441,93.441,0,0,0,9-4c2.966-1.477,4.646-5.449,4-7s-3.065-4.369-3-6,0.546-4.306-1-4-9-5-9-5-7.36-7.981-8-13-3.632-7.86-5-8-4.935-2.513-7-1-4.78,1.016-5,4a14.188,14.188,0,0,1-4,8c-2.211,1.725-8,7-8,7s-8.826,1.476-11,1a44.644,44.644,0,0,1-9-3c-1.945-1.11-4.555-.574-5-1-1.783-1.708-2.358,4.862-1,6a19.8,19.8,0,0,0,8,3,5.509,5.509,0,0,1,5,4c0.479,2.127-.176,7.368,0,9s-1.993,1.316-3,1-9.438,1.544-11,0A4.729,4.729,0,0,0,567,624Z" style="stroke: inherit; filter: none; fill: inherit"/>
  </g>
  <use xlink:href="#guizhou" style="stroke: #3cbbba; filter: none; fill: none"/>
  <g style="fill: #008dff; filter: url(#filter-31)">
    <path id="hainan" class="cls-32" d="M661,806s-6.445,4.09-8,4-7.427-1.393-8,0-2,8-2,8-8.159,3.242-8,5-0.879,8.92,0,12,2.352,6.867,6,8,10.637,2.935,11,4,3.94-.535,8-3,10.506-7.956,13-9,2.745-3.16,3-5,7.785-11.737,9-14,1.643-6.168,0-8-4.938-4.533-9-4S661,806,661,806Z" style="stroke: inherit; filter: none; fill: inherit"/>
  </g>
  <use xlink:href="#hainan" style="stroke: #3cbbba; filter: none; fill: none"/>
  <g id="组_83" data-name="组 83">
    <text id="taiwan-2" data-name="taiwan" class="cls-33" transform="matrix(0.96, 0.28, -0.279, 0.96, 885.838, 685.042)">台<tspan x="0" dy="19.235">湾</tspan></text>
    <text id="hainan-2" data-name="hainan" class="cls-33" transform="translate(643.985 830.155) scale(0.923 0.923)">海南</text>
    <text id="jiangsu-2" data-name="jiangsu" class="cls-33" transform="matrix(0.869, -0.494, 0.494, 0.869, 831.841, 481.006)">江<tspan x="0" dy="19.235">苏</tspan></text>
    <text id="zhejiang-2" data-name="zhejiang" class="cls-33" transform="translate(851.706 570.759)">浙<tspan x="0" dy="19.235">江</tspan></text>
    <text id="fujian-2" data-name="fujian" class="cls-33" transform="translate(813.092 656.674)">福建</text>
    <text id="heilongjiang-2" data-name="heilongjiang" class="cls-33" transform="translate(900.945 142.998)">黑龙江</text>
    <text id="jilin-2" data-name="jilin" class="cls-33" transform="translate(894.633 223.528)">吉林</text>
    <text id="neimenggu-2" data-name="neimenggu" class="cls-33" transform="matrix(0.814, -0.58, 0.58, 0.814, 681.683, 279.492)">内 蒙 古</text>
    <text id="liaoning-2" data-name="liaoning" class="cls-33" transform="translate(860.123 283.116)">辽宁</text>
    <text id="hebei-2" data-name="hebei" class="cls-33" transform="translate(742.958 354.965)">河<tspan x="0" dy="19.235">北</tspan></text>
    <text id="shanxi-jin-2" data-name="shanxi-jin" class="cls-33" transform="translate(680.963 382.962)">山<tspan x="0" dy="19.235">西</tspan></text>
    <text id="henan-2" data-name="henan" class="cls-33" transform="translate(701.134 477.701)">河南</text>
    <text id="hubei-2" data-name="hubei" class="cls-33" transform="translate(688.963 545.938)">湖北</text>
    <text id="anhui-2" data-name="anhui" class="cls-33" transform="translate(787.094 503.979)">安<tspan x="0" dy="19.235">徽</tspan></text>
    <text id="ningxia-2" data-name="ningxia" class="cls-34" transform="matrix(0.802, 0.115, -0.127, 0.886, 571.438, 393.624)">宁<tspan x="0" dy="26.805">夏</tspan></text>
    <text id="hunan-2" data-name="hunan" class="cls-35" transform="translate(675.412 627.68)">湖南</text>
    <text id="jiangxi-2" data-name="jiangxi" class="cls-33" transform="translate(764.199 600.787)">江<tspan x="0" dy="19.235">西</tspan></text>
    <text id="guangdong-2" data-name="guangdong" class="cls-33" transform="translate(724.959 719.913)">广东</text>
    <text id="shanghai-2" data-name="shanghai" class="cls-33" transform="translate(855.53 525.01)">上海</text>
    <text id="beijing-2" data-name="beijing" class="cls-33" transform="translate(745.715 327.322)">北京</text>
    <text id="tianjin-2" data-name="tianjin" class="cls-33" transform="translate(764.747 347.791)">天津</text>
    <text id="guangxi-2" data-name="guangxi" class="cls-33" transform="translate(624.072 723.262)">广西</text>
    <text id="guizhou-2" data-name="guizhou" class="cls-33" transform="translate(582.692 651.205)">贵州</text>
    <text id="sichuan-2" data-name="sichuan" class="cls-33" transform="translate(490.359 562.146)">四川</text>
    <text id="chongqing-2" data-name="chongqing" class="cls-33" transform="translate(591.969 571.934)">重庆</text>
    <text id="xizang-2" data-name="xizang" class="cls-33" transform="translate(221.997 525.941)">西藏</text>
    <text id="qinghai-2" data-name="qinghai" class="cls-33" transform="translate(367.987 432.955)">青海</text>
    <text id="shanxi-2-shan" class="cls-33" transform="translate(615.793 485.095)">西</text>
    <text id="shanxi-1-shan" class="cls-33" x="628.1" y="411.408">陕</text>
    <text id="gansu-1" class="cls-33" transform="translate(391.984 324.47)">甘</text>
    <text id="gansu-2" class="cls-33" transform="translate(539.252 454.717)">肃</text>
    <text id="xinjiang-2" data-name="xinjiang" class="cls-33" transform="translate(186 294.974)">新疆</text>
    <text id="yunnan-2" data-name="yunnan" class="cls-33" transform="translate(464.979 699.914)">云南</text>
    <text id="sd" class="cls-36" transform="translate(784.659 413.744) scale(1.721 1.72)">山东</text>
  </g>
</svg>
