<?xml version="1.0" encoding="UTF-8"?>
<svg width="15px" height="15px" viewBox="0 0 15 15" version="1.1" xmlns="http://www.w3.org/2000/svg" xmlns:xlink="http://www.w3.org/1999/xlink">
    <!-- Generator: Sketch 54.1 (76490) - https://sketchapp.com -->
    <title>bianji</title>
    <desc>Created with Sketch.</desc>
    <g id="1.2" stroke="none" stroke-width="1" fill="none" fill-rule="evenodd">
        <g id="用户列表复制-4" transform="translate(-676.000000, -276.000000)" fill="#52C9C2" fill-rule="nonzero">
            <g id="分组-24" transform="translate(230.000000, 78.000000)">
                <g id="Group-15" transform="translate(20.000000, 137.000000)">
                    <g id="编组" transform="translate(0.000000, 60.000000)">
                        <g id="bianji" transform="translate(426.000000, 1.000000)">
                            <path d="M14.2788461,7.8115016 C13.8942308,7.8115016 13.5576923,8.14696485 13.5576923,8.53035144 L13.5576923,12.6038339 C13.5576923,12.8434505 13.4615385,13.0830671 13.2692308,13.2268371 C13.0769231,13.4185304 12.8846154,13.4664537 12.6442308,13.4664537 L2.35576923,13.4664537 C1.87499999,13.4664537 1.44230769,13.0830671 1.44230769,12.5559105 L1.44230769,2.34824281 C1.44230769,1.86900958 1.87499999,1.43769968 2.35576923,1.43769968 L9.23076923,1.43769968 C9.61538461,1.43769968 9.95192306,1.10223643 9.95192308,0.718849834 C9.95192309,0.335463237 9.66346154,0 9.23076923,0 L2.35576923,0 C1.05769231,0 0,1.0543131 0,2.34824281 L0,12.6517572 C0,13.9456869 1.05769231,15 2.35576923,15 L12.6923077,15 C13.3173077,15 13.8942308,14.7603834 14.3269231,14.3290735 C14.7596154,13.8977636 15,13.3226837 15,12.6517572 L15,8.57827477 C15,8.14696487 14.7115385,7.8115016 14.2788461,7.8115016 Z" id="路径"></path>
                            <path d="M6.20224719,8.82072829 C6.33707865,8.95518207 6.51685393,9 6.69662922,9 C6.8764045,9 7.05617978,8.95518208 7.19101124,8.82072829 L13.7977528,2.14285714 C14.0674157,1.87394957 14.0674157,1.47058824 13.7977528,1.20168067 C13.5280899,0.932773109 13.1235955,0.932773109 12.8539326,1.20168067 L6.20224719,7.83473389 C5.93258427,8.10364146 5.93258427,8.55182073 6.20224719,8.82072829 Z" id="路径"></path>
                        </g>
                    </g>
                </g>
            </g>
        </g>
    </g>
</svg>